<?xml version="1.0" encoding="UTF-8"?>
<svg width="106px" height="76px" viewBox="0 0 106 76" version="1.1" xmlns="http://www.w3.org/2000/svg" xmlns:xlink="http://www.w3.org/1999/xlink">
    <title>DE682079-589C-470B-AE94-6F393725A2E2</title>
    <defs>
        <linearGradient x1="50%" y1="75.7327933%" x2="50%" y2="-0.372296173%" id="linearGradient-1">
            <stop stop-color="#FFFDFF" offset="0%"></stop>
            <stop stop-color="#F1F7F8" offset="100%"></stop>
        </linearGradient>
        <linearGradient x1="2.8460335%" y1="87.957562%" x2="96.6092359%" y2="10.5334557%" id="linearGradient-2">
            <stop stop-color="#FFD44F" offset="0.289017%"></stop>
            <stop stop-color="#FFA607" offset="100%"></stop>
        </linearGradient>
        <linearGradient x1="-0.231386261%" y1="50.8406433%" x2="100.169683%" y2="50.8406433%" id="linearGradient-3">
            <stop stop-color="#FFD44F" offset="0.289017%"></stop>
            <stop stop-color="#FFA607" offset="100%"></stop>
        </linearGradient>
        <linearGradient x1="-0.00512006554%" y1="49.5614035%" x2="99.9692796%" y2="49.5614035%" id="linearGradient-4">
            <stop stop-color="#FFD44F" offset="0.289017%"></stop>
            <stop stop-color="#FFA607" offset="100%"></stop>
        </linearGradient>
        <linearGradient x1="-0.365057329%" y1="48.6421437%" x2="100.03085%" y2="48.6421437%" id="linearGradient-5">
            <stop stop-color="#FFD44F" offset="0.289017%"></stop>
            <stop stop-color="#FFA607" offset="100%"></stop>
        </linearGradient>
        <linearGradient x1="-0.00512006554%" y1="50.274223%" x2="99.9692796%" y2="50.274223%" id="linearGradient-6">
            <stop stop-color="#FFD44F" offset="0.289017%"></stop>
            <stop stop-color="#FFA607" offset="100%"></stop>
        </linearGradient>
        <linearGradient x1="-0.0768009831%" y1="49.3335919%" x2="99.8975987%" y2="49.3335919%" id="linearGradient-7">
            <stop stop-color="#FFD44F" offset="0.289017%"></stop>
            <stop stop-color="#FFA607" offset="100%"></stop>
        </linearGradient>
        <linearGradient x1="-0.00512006554%" y1="50.1279707%" x2="99.9692796%" y2="50.1279707%" id="linearGradient-8">
            <stop stop-color="#FFD44F" offset="0.289017%"></stop>
            <stop stop-color="#FFA607" offset="100%"></stop>
        </linearGradient>
        <linearGradient x1="-0.0768009831%" y1="49.1509971%" x2="99.8975987%" y2="49.1509971%" id="linearGradient-9">
            <stop stop-color="#FFD44F" offset="0.289017%"></stop>
            <stop stop-color="#FFA607" offset="100%"></stop>
        </linearGradient>
        <linearGradient x1="0.029975526%" y1="49.8877006%" x2="100.025175%" y2="49.8877006%" id="linearGradient-10">
            <stop stop-color="#FFD44F" offset="0.289017%"></stop>
            <stop stop-color="#FFA607" offset="100%"></stop>
        </linearGradient>
        <linearGradient x1="31.0106262%" y1="51.9900153%" x2="69.3131299%" y2="47.6494245%" id="linearGradient-11">
            <stop stop-color="#FFD44F" offset="0.289017%"></stop>
            <stop stop-color="#FFA607" offset="100%"></stop>
        </linearGradient>
        <linearGradient x1="0.113283545%" y1="49.8707268%" x2="99.9118906%" y2="49.8707268%" id="linearGradient-12">
            <stop stop-color="#FFD44F" offset="0.289017%"></stop>
            <stop stop-color="#FFA607" offset="100%"></stop>
        </linearGradient>
        <linearGradient x1="0.310480826%" y1="50.5889112%" x2="100.113284%" y2="50.5889112%" id="linearGradient-13">
            <stop stop-color="#FFD44F" offset="0.289017%"></stop>
            <stop stop-color="#FFA607" offset="100%"></stop>
        </linearGradient>
        <linearGradient x1="0.188805908%" y1="48.9227234%" x2="99.9916086%" y2="48.9227234%" id="linearGradient-14">
            <stop stop-color="#FFD44F" offset="0.289017%"></stop>
            <stop stop-color="#FFA607" offset="100%"></stop>
        </linearGradient>
        <linearGradient x1="0.113283545%" y1="48.664177%" x2="99.9118906%" y2="48.664177%" id="linearGradient-15">
            <stop stop-color="#FFD44F" offset="0.289017%"></stop>
            <stop stop-color="#FFA607" offset="100%"></stop>
        </linearGradient>
        <linearGradient x1="0.310480826%" y1="49.353634%" x2="100.113284%" y2="49.353634%" id="linearGradient-16">
            <stop stop-color="#FFD44F" offset="0.289017%"></stop>
            <stop stop-color="#FFA607" offset="100%"></stop>
        </linearGradient>
        <linearGradient x1="0.188805908%" y1="50.0718184%" x2="99.9916086%" y2="50.0718184%" id="linearGradient-17">
            <stop stop-color="#FFD44F" offset="0.289017%"></stop>
            <stop stop-color="#FFA607" offset="100%"></stop>
        </linearGradient>
        <linearGradient x1="0.310480826%" y1="49.6121804%" x2="100.113284%" y2="49.6121804%" id="linearGradient-18">
            <stop stop-color="#FFD44F" offset="0.289017%"></stop>
            <stop stop-color="#FFA607" offset="100%"></stop>
        </linearGradient>
        <linearGradient x1="0.213980029%" y1="50.3446295%" x2="100.012587%" y2="50.3446295%" id="linearGradient-19">
            <stop stop-color="#FFD44F" offset="0.289017%"></stop>
            <stop stop-color="#FFA607" offset="100%"></stop>
        </linearGradient>
        <linearGradient x1="0.310480826%" y1="48.4056306%" x2="100.113284%" y2="48.4056306%" id="linearGradient-20">
            <stop stop-color="#FFD44F" offset="0.289017%"></stop>
            <stop stop-color="#FFA607" offset="100%"></stop>
        </linearGradient>
        <linearGradient x1="0.213980029%" y1="49.0950876%" x2="100.012587%" y2="49.0950876%" id="linearGradient-21">
            <stop stop-color="#FFD44F" offset="0.289017%"></stop>
            <stop stop-color="#FFA607" offset="100%"></stop>
        </linearGradient>
        <linearGradient x1="-0.165230429%" y1="50.1543926%" x2="99.8725931%" y2="50.1543926%" id="linearGradient-22">
            <stop stop-color="#FFD44F" offset="0.289017%"></stop>
            <stop stop-color="#FFA607" offset="100%"></stop>
        </linearGradient>
        <linearGradient x1="29.8067321%" y1="35.2374883%" x2="56.8236698%" y2="66.0908359%" id="linearGradient-23">
            <stop stop-color="#FAA404" offset="0%"></stop>
            <stop stop-color="#FF7904" stop-opacity="0" offset="100%"></stop>
        </linearGradient>
        <linearGradient x1="73.4099719%" y1="99.5298858%" x2="28.0339624%" y2="21.7506156%" id="linearGradient-24">
            <stop stop-color="#FFE491" offset="0%"></stop>
            <stop stop-color="#FFFFFF" offset="100%"></stop>
        </linearGradient>
        <linearGradient x1="3.35120385%" y1="87.0883377%" x2="95.394334%" y2="12.4713415%" id="linearGradient-25">
            <stop stop-color="#FFD44F" offset="0.289017%"></stop>
            <stop stop-color="#FFA607" offset="100%"></stop>
        </linearGradient>
        <linearGradient x1="7.18527861%" y1="3.62291833%" x2="95.6627261%" y2="93.9691335%" id="linearGradient-26">
            <stop stop-color="#FFD44F" offset="0.289017%"></stop>
            <stop stop-color="#FFA607" offset="100%"></stop>
        </linearGradient>
        <linearGradient x1="3.24592756%" y1="78.3838798%" x2="97.5481023%" y2="21.6476824%" id="linearGradient-27">
            <stop stop-color="#FFD44F" offset="0.289017%"></stop>
            <stop stop-color="#FFA607" offset="100%"></stop>
        </linearGradient>
        <linearGradient x1="5.41444177%" y1="4.08370326%" x2="93.8596922%" y2="94.3873526%" id="linearGradient-28">
            <stop stop-color="#FFD44F" offset="0.289017%"></stop>
            <stop stop-color="#FFA607" offset="100%"></stop>
        </linearGradient>
        <linearGradient x1="23.384087%" y1="9.14127424%" x2="78.8604616%" y2="92.7977839%" id="linearGradient-29">
            <stop stop-color="#83A6FF" offset="0%"></stop>
            <stop stop-color="#5A78FF" offset="100%"></stop>
        </linearGradient>
        <linearGradient x1="0.751043115%" y1="52.0775623%" x2="95.8275382%" y2="52.0775623%" id="linearGradient-30">
            <stop stop-color="#FF66A9" offset="0%"></stop>
            <stop stop-color="#F53689" offset="100%"></stop>
        </linearGradient>
        <linearGradient x1="0.723226704%" y1="52.0775623%" x2="95.7997218%" y2="52.0775623%" id="linearGradient-31">
            <stop stop-color="#FF66A9" offset="0%"></stop>
            <stop stop-color="#F53689" offset="100%"></stop>
        </linearGradient>
        <linearGradient x1="2.42388413%" y1="52.0588235%" x2="97.3100798%" y2="52.0588235%" id="linearGradient-32">
            <stop stop-color="#83A6FF" offset="0%"></stop>
            <stop stop-color="#5A78FF" offset="100%"></stop>
        </linearGradient>
        <linearGradient x1="73.5990891%" y1="10.2830351%" x2="27.6057582%" y2="87.0631277%" id="linearGradient-33">
            <stop stop-color="#FF66A9" offset="0%"></stop>
            <stop stop-color="#F53689" offset="100%"></stop>
        </linearGradient>
        <linearGradient x1="49.6532399%" y1="116.526371%" x2="50.3817863%" y2="3.67364413%" id="linearGradient-34">
            <stop stop-color="#FF66A9" offset="0%"></stop>
            <stop stop-color="#F53689" offset="100%"></stop>
        </linearGradient>
        <linearGradient x1="48.3033374%" y1="141.933368%" x2="49.8497875%" y2="14.9864134%" id="linearGradient-35">
            <stop stop-color="#FF66A9" offset="0%"></stop>
            <stop stop-color="#F53689" offset="100%"></stop>
        </linearGradient>
        <linearGradient x1="99.930459%" y1="50.182704%" x2="0.0764951321%" y2="50.182704%" id="linearGradient-36">
            <stop stop-color="#FF66A9" offset="0%"></stop>
            <stop stop-color="#F53689" offset="100%"></stop>
        </linearGradient>
        <linearGradient x1="-0.0116850115%" y1="50.0779463%" x2="99.9754721%" y2="50.0779463%" id="linearGradient-37">
            <stop stop-color="#FFD44F" offset="0.289017%"></stop>
            <stop stop-color="#FFA607" offset="100%"></stop>
        </linearGradient>
        <linearGradient x1="30.6288531%" y1="35.2374883%" x2="56.5458603%" y2="66.0908359%" id="linearGradient-38">
            <stop stop-color="#FAA404" offset="0%"></stop>
            <stop stop-color="#FF7904" stop-opacity="0" offset="100%"></stop>
        </linearGradient>
        <linearGradient x1="73.9783881%" y1="99.5298858%" x2="27.5006063%" y2="21.7506156%" id="linearGradient-39">
            <stop stop-color="#FFE491" offset="0%"></stop>
            <stop stop-color="#FFFFFF" offset="100%"></stop>
        </linearGradient>
    </defs>
    <g id="desktop" stroke="none" stroke-width="1" fill="none" fill-rule="evenodd">
        <g id="my-account" transform="translate(-458.000000, -491.000000)">
            <g id="Group-32-Copy-2" transform="translate(442.000000, 483.000000)">
                <g id="finpower-banner-artwork-desktop" transform="translate(16.000000, 8.000000)">
                    <path d="M49.6951313,74.9182502 C76.5821972,74.9182502 99.027582,68.0870488 99.027582,43.8624736 C99.027582,19.6378983 77.2313084,0 50.3442425,0 C23.4571765,0 1.66090295,19.6378983 1.66090295,43.8624736 C1.66090295,68.0870488 22.8080653,74.9182502 49.6951313,74.9182502 Z" id="Oval" fill="url(#linearGradient-1)" fill-rule="nonzero"></path>
                    <g id="22" transform="translate(0.000000, 10.278850)">
                        <path d="M104.837283,65.3620622 L1.01610318,65.3620622 C0.406627373,65.3620622 0,65.253877 0,65.0915992 C0,64.9293214 0.406627373,64.8211362 1.01610318,64.8211362 L104.734929,64.8211362 C105.345335,64.8211362 105.751032,64.9293214 105.751032,65.0915992 C105.751032,65.253877 105.345335,65.3620622 104.837283,65.3620622 Z" id="Path" fill="#B1B9CC" fill-rule="nonzero"></path>
                        <g id="Group-22" transform="translate(65.458914, 32.845747) scale(-1, 1) translate(-65.458914, -32.845747) translate(31.306986, 0.000000)">
                            <line x1="10.6548187" y1="64.1791698" x2="11.7940167" y2="64.1791698" id="Path" stroke="#2D5887" stroke-linecap="round" stroke-linejoin="round"></line>
                            <path d="M29.0648777,1.07355406 L29.4920052,0.552436065 C29.586604,0.457479328 29.4444192,0.267565855 29.3022345,0.315044223 L28.6853361,0.552436065 C28.4479793,0.646820773 28.2106225,0.599914433 27.9732657,0.457479328 L27.4515394,0.0307460425 C27.3569406,-0.0642106941 27.1671699,0.0782244107 27.2141826,0.220659515 L27.4515394,0.836734246 C27.5467114,1.07355406 27.4991254,1.3109459 27.3569406,1.54776571 L26.9773991,2.02197737 C26.882227,2.1169341 27.0244118,2.30627555 27.1671699,2.25936921 L27.7834949,2.02197737 C28.0208517,1.92702063 28.2582085,1.974499 28.4955653,2.1169341 L29.0172916,2.54366739 C29.1124637,2.63862413 29.3022345,2.49618902 29.2546484,2.35375392 L29.0172916,1.73767919 C28.8751069,1.50028734 28.9226929,1.26346753 29.0648777,1.07355406 Z" id="Path" fill="url(#linearGradient-2)" fill-rule="nonzero"></path>
                            <polygon id="Path" fill="#1C3754" fill-rule="nonzero" points="25.5062455 64.1791698 21.283129 64.1791698 20.4294472 61.6193421 26.3605007 61.6193421"></polygon>
                            <polygon id="Path" fill="#1C3754" fill-rule="nonzero" points="57.2014058 64.3067322 52.9307032 64.3067322 52.0770214 61.6193421 58.0080749 61.6193421"></polygon>
                            <path d="M65.1247659,62.0460754 L14.8303492,62.0460754 C13.0748261,62.0460754 11.6512586,60.6234405 11.6512586,58.8690289 L11.6512586,8.04314971 C11.6512586,6.28931022 13.0748261,4.86667526 14.8303492,4.86667526 L65.1247659,4.86667526 C66.8802889,4.86667526 68.3038564,6.28931022 68.3038564,8.04314971 L68.3038564,58.8690289 C68.3038564,60.6234405 66.8802889,62.0460754 65.1247659,62.0460754 Z" id="Path" fill="#2D5887" fill-rule="nonzero"></path>
                            <path d="M62.0408473,57.8262209 L17.9618537,57.8262209 C16.6334582,57.8262209 15.4948336,56.7359345 15.4948336,55.3607779 L15.4948336,10.7934629 C15.4948336,9.46578467 16.5858722,8.32801992 17.9618537,8.32801992 L62.0408473,8.32801992 C63.3692428,8.32801992 64.5078675,9.4183063 64.5078675,10.7934629 L64.5078675,55.3607779 C64.5078675,56.7359345 63.4168288,57.8262209 62.0408473,57.8262209 Z" id="Path" fill="#1C3754" fill-rule="nonzero"></path>
                            <g id="Group" opacity="0.8" transform="translate(29.396833, 46.731728)" fill-rule="nonzero">
                                <g transform="translate(0.854255, 6.352949)" id="Path">
                                    <path d="M11.1976227,0.237391841 L11.1976227,1.32767823 C11.1976227,1.47011333 11.1024506,1.56507007 10.9602659,1.56507007 L0.284369508,1.56507007 C0.142184754,1.56507007 0.0475860265,1.47011333 0.0475860265,1.32767823 L0.0475860265,0.237391841 C0.0475860265,0.0949567365 0.142184754,0 0.284369508,0 L10.9602659,0 C11.1024506,0 11.1976227,0.0949567365 11.1976227,0.237391841 Z" fill="url(#linearGradient-3)"></path>
                                    <polygon fill="#FFFFFF" opacity="0.5" points="2.51460617 0 2.13506461 1.56507007 0.616898367 1.56507007 0.996439928 0"></polygon>
                                    <polygon fill="#FFFFFF" opacity="0.5" points="8.01853212 0 7.63899056 1.56507007 6.73714936 1.56507007 7.11669092 0"></polygon>
                                    <polygon fill="#FFFFFF" opacity="0.5" points="3.17909056 0 2.799549 1.56507007 2.42000744 1.56507007 2.799549 0"></polygon>
                                    <polygon fill="#4F3500" opacity="0.1" points="11.1976227 1.42263496 0 1.42263496 0 1.61254844 11.1976227 1.61254844"></polygon>
                                </g>
                                <g transform="translate(1.754950, 4.788451)" id="Path">
                                    <path d="M11.198196,0.237391841 L11.198196,1.32767823 C11.198196,1.47011333 11.103024,1.56507007 10.9608392,1.56507007 L0.237356807,1.56507007 C0.0951720529,1.56507007 0.00057332562,1.47011333 0.00057332562,1.32767823 L0.00057332562,0.237391841 C0.00057332562,0.0949567365 0.0951720529,0 0.237356807,0 L10.9132532,0 C11.103024,0 11.198196,0.0949567365 11.198196,0.237391841 Z" fill="url(#linearGradient-4)"></path>
                                    <polygon fill="#FFFFFF" opacity="0.5" points="2.13563793 0 1.75609637 1.56507007 0.237930132 1.56507007 0.617471693 0"></polygon>
                                    <polygon fill="#FFFFFF" opacity="0.5" points="7.2124363 0 6.83289474 1.56507007 5.93105354 1.56507007 6.3105951 0"></polygon>
                                    <polygon fill="#FFFFFF" opacity="0.5" points="2.7525363 0 2.37299474 1.56507007 1.99287986 1.56507007 2.37299474 0"></polygon>
                                    <polygon fill="#4F3500" opacity="0.1" points="11.1976227 1.37515659 0 1.37515659 0 1.56507007 11.1976227 1.56507007"></polygon>
                                </g>
                                <g transform="translate(1.422994, 3.176474)" id="Path">
                                    <path d="M11.198196,0.284298181 L11.198196,1.37515659 C11.198196,1.51701967 11.103024,1.61197641 10.9608392,1.61197641 L0.284942833,1.61197641 C0.142758079,1.61197641 0.0475860265,1.51701967 0.0475860265,1.37515659 L0.0475860265,0.284298181 C0.0475860265,0.142435105 0.142758079,0.0474783683 0.284942833,0.0474783683 L10.9608392,0.0474783683 C11.103024,-2.29885555e-14 11.198196,0.142435105 11.198196,0.284298181 Z" fill="url(#linearGradient-5)"></path>
                                    <polygon fill="#FFFFFF" opacity="0.5" points="2.89472106 0 2.51517949 1.61197641 0.997013253 1.61197641 1.37655481 0"></polygon>
                                    <polygon fill="#FFFFFF" opacity="0.5" points="7.97151942 0 7.59197786 1.61197641 6.73772269 1.61197641 7.11726425 0"></polygon>
                                    <polygon fill="#FFFFFF" opacity="0.5" points="3.55863212 0 3.17909056 1.61197641 2.75196298 1.61197641 3.13150454 0"></polygon>
                                    <polygon fill="#4F3500" opacity="0.1" points="11.1976227 1.42263496 0 1.42263496 0 1.61197641 11.1976227 1.61197641"></polygon>
                                </g>
                                <g transform="translate(1.754950, 9.529995)" id="Path">
                                    <path d="M11.198196,0.236819813 L11.198196,1.3271062 C11.198196,1.4695413 11.103024,1.56449804 10.9608392,1.56449804 L0.237356807,1.56449804 C0.0951720529,1.56449804 0.00057332562,1.4695413 0.00057332562,1.3271062 L0.00057332562,0.236819813 C0.00057332562,0.094384708 0.0951720529,0 0.237356807,0 L10.9132532,0 C11.103024,0 11.198196,0.094384708 11.198196,0.236819813 Z" fill="url(#linearGradient-6)"></path>
                                    <polygon fill="#FFFFFF" opacity="0.5" points="2.89472106 0 2.51517949 1.56449804 0.997013253 1.56449804 1.37655481 0"></polygon>
                                    <polygon fill="#FFFFFF" opacity="0.5" points="7.97151942 0 7.59197786 1.56449804 6.69013666 1.56449804 7.06967822 0"></polygon>
                                    <polygon fill="#FFFFFF" opacity="0.5" points="3.51161942 0 3.13207786 1.56449804 2.7525363 1.56449804 3.13207786 0"></polygon>
                                    <polygon fill="#4F3500" opacity="0.1" points="11.1976227 1.37458457 0 1.37458457 0 1.56449804 11.1976227 1.56449804"></polygon>
                                </g>
                                <g transform="translate(0.000000, 7.918019)" id="Path">
                                    <path d="M11.1976227,0.284298181 L11.1976227,1.37458457 C11.1976227,1.51701967 11.1024506,1.61197641 10.9602659,1.61197641 L0.237356807,1.61197641 C0.0945987273,1.61197641 0,1.51701967 0,1.37458457 L0,0.284298181 C0,0.141863076 0.0945987273,0.0474783683 0.237356807,0.0474783683 L10.9126799,0.0474783683 C11.0554379,-1.27814426e-13 11.1976227,0.141863076 11.1976227,0.284298181 Z" fill="url(#linearGradient-7)"></path>
                                    <polygon fill="#FFFFFF" opacity="0.5" points="5.21898312 0 4.83944156 1.61197641 3.32127532 1.61197641 3.70081688 0"></polygon>
                                    <polygon fill="#FFFFFF" opacity="0.5" points="10.2957815 0 9.91623992 1.61197641 9.01497205 1.61197641 9.39451361 0"></polygon>
                                    <polygon fill="#FFFFFF" opacity="0.5" points="5.88346751 0 5.50392595 1.61197641 5.07679837 1.61197641 5.45633993 0"></polygon>
                                    <polygon fill="#4F3500" opacity="0.1" points="11.1976227 1.42206293 0 1.42206293 0 1.61197641 11.1976227 1.61197641"></polygon>
                                </g>
                                <g transform="translate(1.754950, 1.611976)" id="Path">
                                    <path d="M11.198196,0.237391841 L11.198196,1.32767823 C11.198196,1.47011333 11.103024,1.56449804 10.9608392,1.56449804 L0.237356807,1.56449804 C0.0951720529,1.56449804 0.00057332562,1.47011333 0.00057332562,1.32767823 L0.00057332562,0.237391841 C0.00057332562,0.0949567365 0.0951720529,0 0.237356807,0 L10.9132532,0 C11.103024,0 11.198196,0.0949567365 11.198196,0.237391841 Z" fill="url(#linearGradient-8)"></path>
                                    <polygon fill="#FFFFFF" opacity="0.5" points="2.89472106 0 2.51517949 1.56449804 0.997013253 1.56449804 1.37655481 0"></polygon>
                                    <polygon fill="#FFFFFF" opacity="0.5" points="7.97151942 0 7.59197786 1.56449804 6.69013666 1.56449804 7.06967822 0"></polygon>
                                    <polygon fill="#FFFFFF" opacity="0.5" points="3.51161942 0 3.13207786 1.56449804 2.7525363 1.56449804 3.13207786 0"></polygon>
                                    <polygon fill="#4F3500" opacity="0.1" points="11.1976227 1.37515659 0 1.37515659 0 1.56449804 11.1976227 1.56449804"></polygon>
                                </g>
                                <g id="Path">
                                    <path d="M11.1976227,0.284298181 L11.1976227,1.37515659 C11.1976227,1.51701967 11.1024506,1.61197641 10.9602659,1.61197641 L0.237356807,1.61197641 C0.0945987273,1.61197641 0,1.51701967 0,1.37515659 L0,0.284298181 C0,0.142435105 0.0945987273,0.0474783683 0.237356807,0.0474783683 L10.9126799,0.0474783683 C11.0554379,-2.29885555e-14 11.1976227,0.142435105 11.1976227,0.284298181 Z" fill="url(#linearGradient-9)"></path>
                                    <polygon fill="#FFFFFF" opacity="0.5" points="5.21898312 0 4.83944156 1.61197641 3.32127532 1.61197641 3.70081688 0"></polygon>
                                    <polygon fill="#FFFFFF" opacity="0.5" points="10.2957815 0 9.91623992 1.61197641 9.01497205 1.61197641 9.39451361 0"></polygon>
                                    <polygon fill="#FFFFFF" opacity="0.5" points="5.88346751 0 5.50392595 1.61197641 5.07679837 1.61197641 5.45633993 0"></polygon>
                                    <polygon fill="#4F3500" opacity="0.1" points="11.1976227 1.42263496 0 1.42263496 0 1.61197641 11.1976227 1.61197641"></polygon>
                                </g>
                            </g>
                            <path d="M51.5077091,30.8013049 C41.8282526,31.7966346 26.929813,31.5598147 15.4948336,31.8915913 L15.4948336,24.7801326 C15.6370183,24.447784 15.7792031,24.1634858 15.8743751,23.8791876 C16.1117319,23.3100192 16.5858722,22.8358076 17.1551846,22.6464661 C17.2503566,22.5989878 17.3925414,22.5515094 17.4877134,22.5515094 C18.7685228,22.1722545 20.2396764,22.3146896 21.6156579,22.7408508 C22.327155,22.9782427 22.9916394,23.2150625 23.6085377,23.4999327 C24.8893472,24.1160074 26.1707299,24.8270389 27.4991254,25.3012506 C28.1630365,25.5386424 28.7799348,25.7279838 29.4444192,25.8229406 C29.9185595,25.9178973 30.4408591,25.9178973 30.9149994,25.8704189 C33.4301789,25.6805055 35.5176575,23.9735723 37.937665,23.1675841 C40.8793987,22.1722545 44.2482601,22.6464661 46.7628662,24.447784 C48.0912617,25.3487289 49.2298864,26.9607053 48.660574,28.4308187 C48.612988,28.5726817 48.612988,28.7151168 48.660574,28.8575519 C49.0401156,30.0902734 52.9782893,30.6588698 51.5077091,30.8013049 Z" id="Path" fill="url(#linearGradient-10)" fill-rule="nonzero"></path>
                            <path d="M29.4444192,25.8229406 C28.7799348,25.7279838 28.1160238,25.5386424 27.4991254,25.3012506 C26.1701566,24.8276109 24.8893472,24.1160074 23.6085377,23.4999327 C23.3235949,23.3574976 22.9916394,23.2150625 22.6591105,23.0731994 C22.6591105,23.0731994 22.6120978,23.0731994 22.6120978,23.0257211 C22.327155,22.8832859 21.9951994,22.7883292 21.7102566,22.6939445 L21.6626706,22.6939445 C20.2866891,22.2672112 18.8161089,22.0772977 17.5347261,22.504031 C19.1004784,25.6335991 23.0386521,27.2455755 26.3605007,25.9178973 C27.3563673,26.1547171 28.4003933,26.1072388 29.4444192,25.8229406 Z" id="Path" fill="#F8AA00" fill-rule="nonzero"></path>
                            <path d="M51.5077091,30.8013049 C41.8282526,31.7966346 26.929813,31.5598147 15.4948336,31.8915913 L15.4948336,27.6248305 C16.6334582,27.5773521 17.6774842,28.6201601 18.7209368,29.2368069 C20.666804,30.3270932 23.0862381,29.9478383 25.3164748,29.6635402 C33.0506374,28.5726817 40.8318127,28.6676385 48.660574,28.9519367 C49.0401156,30.0902734 52.9782893,30.6588698 51.5077091,30.8013049 Z" id="Path" fill="#F8AA00" fill-rule="nonzero"></path>
                            <polygon id="Path" fill="#2D5887" fill-rule="nonzero" points="64.4608548 30.8013049 15.0206933 30.8013049 15.0206933 35.0680657 64.4608548 35.0680657"></polygon>
                            <path d="M56.2049659,36.6806142 C57.6199335,36.6806142 58.7671581,34.833534 58.7671581,32.5557164 C58.7671581,30.2773268 57.6199335,28.4308187 56.2049659,28.4308187 C54.7899982,28.4308187 53.6427737,30.2773268 53.6427737,32.5557164 C53.6427737,34.833534 54.7899982,36.6806142 56.2049659,36.6806142 Z" id="Path" fill="url(#linearGradient-11)" fill-rule="nonzero" opacity="0.4"></path>
                            <polygon id="Path" fill="#1C3754" fill-rule="nonzero" points="54.3066847 29.5685834 51.1751802 29.5685834 51.1751802 35.494799 54.3066847 35.494799"></polygon>
                            <g id="Group-23" transform="translate(16.538860, 38.529410)" fill-rule="nonzero">
                                <path d="M14.7556815,17.6848341 L14.7556815,19.0125124 C14.7556815,19.2018538 14.6134967,19.3442889 14.4237259,19.3442889 L1.42299419,19.3442889 C1.23322341,19.3442889 1.09103865,19.2018538 1.09103865,19.0125124 L1.09103865,17.6848341 C1.09103865,17.4949207 1.23322341,17.3530576 1.42299419,17.3530576 L14.4237259,17.3530576 C14.6134967,17.400536 14.7556815,17.542399 14.7556815,17.6848341 Z" id="Path" fill="url(#linearGradient-12)"></path>
                                <polygon id="Path" fill="#FFFFFF" opacity="0.5" points="4.17495716 17.400536 3.70081688 19.2968105 1.85012178 19.2968105 2.32483539 17.400536"></polygon>
                                <polygon id="Path" fill="#FFFFFF" opacity="0.5" points="10.8180811 17.400536 10.3433675 19.2968105 9.29991488 19.2968105 9.72646914 17.400536"></polygon>
                                <polygon id="Path" fill="#FFFFFF" opacity="0.5" points="4.93461361 17.400536 4.4599 19.2968105 3.98575971 19.2968105 4.4599 17.400536"></polygon>
                                <polygon id="Path" fill="#4F3500" opacity="0.1" points="14.7086688 19.1068971 1.09103865 19.1068971 1.09103865 19.3442889 14.7086688 19.3442889"></polygon>
                                <path d="M15.7997074,15.7410812 L15.7997074,17.0681874 C15.7997074,17.2581008 15.6575227,17.400536 15.4677519,17.400536 L2.46702014,17.400536 C2.27724936,17.400536 2.13506461,17.2581008 2.13506461,17.0681874 L2.13506461,15.7410812 C2.13506461,15.5511677 2.27724936,15.4093046 2.46702014,15.4093046 L15.4677519,15.4093046 C15.6575227,15.456211 15.7997074,15.5986461 15.7997074,15.7410812 Z" id="Path" fill="url(#linearGradient-13)"></path>
                                <polygon id="Path" fill="#FFFFFF" opacity="0.5" points="4.74484283 15.456211 4.31771524 17.400536 2.46759347 17.400536 2.89472106 15.456211"></polygon>
                                <polygon id="Path" fill="#FFFFFF" opacity="0.5" points="10.9602659 15.456211 10.4855523 17.400536 9.39451361 17.400536 9.8686539 15.456211"></polygon>
                                <polygon id="Path" fill="#FFFFFF" opacity="0.5" points="5.55093865 15.456211 5.07679837 17.400536 4.60208475 17.400536 5.07679837 15.456211"></polygon>
                                <polygon id="Path" fill="#4F3500" opacity="0.1" points="15.7997074 17.1631441 2.18265064 17.1631441 2.18265064 17.400536 15.7997074 17.400536"></polygon>
                                <path d="M15.4201659,13.8442346 L15.4201659,15.1719128 C15.4201659,15.3618263 15.2779811,15.5036893 15.0882103,15.5036893 L2.08747858,15.5036893 C1.8977078,15.5036893 1.75552305,15.3618263 1.75552305,15.1719128 L1.75552305,13.8442346 C1.75552305,13.6548931 1.8977078,13.512458 2.08747858,13.512458 L15.0882103,13.512458 C15.2779811,13.512458 15.4201659,13.6548931 15.4201659,13.8442346 Z" id="Path" fill="url(#linearGradient-14)"></path>
                                <polygon id="Path" fill="#FFFFFF" opacity="0.5" points="5.31358185 13.512458 4.83944156 15.456211 2.98874646 15.456211 3.46346007 13.512458"></polygon>
                                <polygon id="Path" fill="#FFFFFF" opacity="0.5" points="11.4819922 13.512458 11.0548646 15.456211 9.96382595 15.456211 10.4385396 13.512458"></polygon>
                                <polygon id="Path" fill="#FFFFFF" opacity="0.5" points="6.07266497 13.512458 5.64553738 15.456211 5.17139709 15.456211 5.59852468 13.512458"></polygon>
                                <polygon id="Path" fill="#4F3500" opacity="0.1" points="15.4201659 15.2193912 1.80253575 15.2193912 1.80253575 15.456211 15.4201659 15.456211"></polygon>
                                <path d="M14.7556815,8.05988203 L14.7556815,9.38756026 C14.7556815,9.57747373 14.6134967,9.71933681 14.4237259,9.71933681 L1.42299419,9.71933681 C1.23322341,9.71933681 1.09103865,9.57747373 1.09103865,9.38756026 L1.09103865,8.05988203 C1.09103865,7.87054059 1.23322341,7.72810548 1.42299419,7.72810548 L14.4237259,7.72810548 C14.6134967,7.72810548 14.7556815,7.87054059 14.7556815,8.05988203 Z" id="Path" fill="url(#linearGradient-15)"></path>
                                <polygon id="Path" fill="#FFFFFF" opacity="0.5" points="4.17495716 7.72810548 3.70081688 9.67185844 1.85012178 9.67185844 2.32483539 7.72810548"></polygon>
                                <polygon id="Path" fill="#FFFFFF" opacity="0.5" points="10.8180811 7.72810548 10.3433675 9.67185844 9.29991488 9.67185844 9.72646914 7.72810548"></polygon>
                                <polygon id="Path" fill="#FFFFFF" opacity="0.5" points="4.93461361 7.72810548 4.4599 9.67185844 3.98575971 9.67185844 4.4599 7.72810548"></polygon>
                                <polygon id="Path" fill="#4F3500" opacity="0.1" points="14.7086688 9.43503863 1.09103865 9.43503863 1.09103865 9.67185844 14.7086688 9.67185844"></polygon>
                                <path d="M15.7997074,6.11612908 L15.7997074,7.4438073 C15.7997074,7.63314875 15.6575227,7.77558385 15.4677519,7.77558385 L2.46702014,7.77558385 C2.27724936,7.77558385 2.13506461,7.63314875 2.13506461,7.4438073 L2.13506461,6.11612908 C2.13506461,5.9262156 2.27724936,5.78435253 2.46702014,5.78435253 L15.4677519,5.78435253 C15.6575227,5.78435253 15.7997074,5.9262156 15.7997074,6.11612908 Z" id="Path" fill="url(#linearGradient-16)"></path>
                                <polygon id="Path" fill="#FFFFFF" opacity="0.5" points="4.74484283 5.78435253 4.31771524 7.72810548 2.46759347 7.72810548 2.89472106 5.78435253"></polygon>
                                <polygon id="Path" fill="#FFFFFF" opacity="0.5" points="10.9602659 5.78435253 10.4855523 7.72810548 9.39451361 7.72810548 9.8686539 5.78435253"></polygon>
                                <polygon id="Path" fill="#FFFFFF" opacity="0.5" points="5.55093865 5.78435253 5.07679837 7.72810548 4.60208475 7.72810548 5.07679837 5.78435253"></polygon>
                                <polygon id="Path" fill="#4F3500" opacity="0.1" points="15.7997074 7.49071364 2.18265064 7.49071364 2.18265064 7.72810548 15.7997074 7.72810548"></polygon>
                                <path d="M15.4201659,4.17237612 L15.4201659,5.50005435 C15.4201659,5.68939579 15.2779811,5.8318309 15.0882103,5.8318309 L2.08747858,5.8318309 C1.8977078,5.8318309 1.75552305,5.68939579 1.75552305,5.50005435 L1.75552305,4.17237612 C1.75552305,3.98246265 1.8977078,3.84059957 2.08747858,3.84059957 L15.0882103,3.84059957 C15.2779811,3.88807794 15.4201659,4.02994102 15.4201659,4.17237612 Z" id="Path" fill="url(#linearGradient-17)"></path>
                                <polygon id="Path" fill="#FFFFFF" opacity="0.5" points="5.31358185 3.88807794 4.83944156 5.78435253 2.98874646 5.78435253 3.46346007 3.88807794"></polygon>
                                <polygon id="Path" fill="#FFFFFF" opacity="0.5" points="11.4819922 3.88807794 11.0548646 5.78435253 9.96382595 5.78435253 10.4385396 3.88807794"></polygon>
                                <polygon id="Path" fill="#FFFFFF" opacity="0.5" points="6.07266497 3.88807794 5.64553738 5.78435253 5.17139709 5.78435253 5.59852468 3.88807794"></polygon>
                                <polygon id="Path" fill="#4F3500" opacity="0.1" points="15.4201659 5.59443906 1.80253575 5.59443906 1.80253575 5.8318309 15.4201659 5.8318309"></polygon>
                                <path d="M15.7997074,11.9004816 L15.7997074,13.2281598 C15.7997074,13.4175013 15.6575227,13.5599364 15.4677519,13.5599364 L2.46702014,13.5599364 C2.27724936,13.5599364 2.13506461,13.4175013 2.13506461,13.2281598 L2.13506461,11.9004816 C2.13506461,11.7105681 2.27724936,11.5687051 2.46702014,11.5687051 L15.4677519,11.5687051 C15.6575227,11.5687051 15.7997074,11.7105681 15.7997074,11.9004816 Z" id="Path" fill="url(#linearGradient-18)"></path>
                                <polygon id="Path" fill="#FFFFFF" opacity="0.5" points="5.69369673 11.5687051 5.26656915 13.512458 3.41587404 13.512458 3.84300163 11.5687051"></polygon>
                                <polygon id="Path" fill="#FFFFFF" opacity="0.5" points="11.9091198 11.5687051 11.4349795 13.512458 10.3433675 13.512458 10.8180811 11.5687051"></polygon>
                                <polygon id="Path" fill="#FFFFFF" opacity="0.5" points="6.49979255 11.5687051 6.02565227 13.512458 5.55093865 13.512458 6.02565227 11.5687051"></polygon>
                                <polygon id="Path" fill="#4F3500" opacity="0.1" points="15.7997074 13.3231166 2.18265064 13.3231166 2.18265064 13.5599364 15.7997074 13.5599364"></polygon>
                                <path d="M13.6646428,9.95672865 L13.6646428,11.2838348 C13.6646428,11.4737483 13.5224581,11.6161834 13.3326873,11.6161834 L0.331955534,11.6161834 C0.142184754,11.6161834 0,11.4737483 0,11.2838348 L0,9.95672865 C0,9.76681518 0.142184754,9.62438007 0.331955534,9.62438007 L13.3326873,9.62438007 C13.5224581,9.67185844 13.6646428,9.81429354 13.6646428,9.95672865 Z" id="Path" fill="url(#linearGradient-19)"></path>
                                <polygon id="Path" fill="#FFFFFF" opacity="0.5" points="6.40519383 9.67185844 5.93048021 11.5687051 4.08035844 11.5687051 4.55449873 9.67185844"></polygon>
                                <polygon id="Path" fill="#FFFFFF" opacity="0.5" points="12.5736042 9.67185844 12.1464766 11.5687051 11.0548646 11.5687051 11.5295782 9.67185844"></polygon>
                                <polygon id="Path" fill="#FFFFFF" opacity="0.5" points="7.16427695 9.67185844 6.73714936 11.5687051 6.26300907 11.5687051 6.69013666 9.67185844"></polygon>
                                <polygon id="Path" fill="#4F3500" opacity="0.1" points="13.6646428 11.3787916 0.0475860265 11.3787916 0.0475860265 11.6161834 13.6646428 11.6161834"></polygon>
                                <path d="M15.7997074,2.27552951 L15.7997074,3.60320773 C15.7997074,3.7931212 15.6575227,3.93498428 15.4677519,3.93498428 L2.46702014,3.93498428 C2.27724936,3.93498428 2.13506461,3.7931212 2.13506461,3.60320773 L2.13506461,2.27552951 C2.13506461,2.08618806 2.27724936,1.94375296 2.46702014,1.94375296 L15.4677519,1.94375296 C15.6575227,1.94375296 15.7997074,2.08618806 15.7997074,2.27552951 Z" id="Path" fill="url(#linearGradient-20)"></path>
                                <polygon id="Path" fill="#FFFFFF" opacity="0.5" points="5.69369673 1.94375296 5.26656915 3.88750591 3.41587404 3.88750591 3.84300163 1.94375296"></polygon>
                                <polygon id="Path" fill="#FFFFFF" opacity="0.5" points="11.9091198 1.94375296 11.4349795 3.88750591 10.3433675 3.88750591 10.8180811 1.94375296"></polygon>
                                <polygon id="Path" fill="#FFFFFF" opacity="0.5" points="6.49979255 1.94375296 6.02565227 3.88750591 5.55093865 3.88750591 6.02565227 1.94375296"></polygon>
                                <polygon id="Path" fill="#4F3500" opacity="0.1" points="15.7997074 3.6506861 2.18265064 3.6506861 2.18265064 3.88807794 15.7997074 3.88807794"></polygon>
                                <path d="M13.6646428,0.331776549 L13.6646428,1.65945477 C13.6646428,1.84879622 13.5224581,1.99123132 13.3326873,1.99123132 L0.331955534,1.99123132 C0.142184754,1.99123132 0,1.84879622 0,1.65945477 L0,0.331776549 C0,0.142435105 0.142184754,0 0.331955534,0 L13.3326873,0 C13.5224581,0 13.6646428,0.142435105 13.6646428,0.331776549 Z" id="Path" fill="url(#linearGradient-21)"></path>
                                <polygon id="Path" fill="#FFFFFF" opacity="0.5" points="6.40519383 0 5.93048021 1.94375296 4.08035844 1.94375296 4.55449873 0"></polygon>
                                <polygon id="Path" fill="#FFFFFF" opacity="0.5" points="12.5736042 0 12.1464766 1.94375296 11.0548646 1.94375296 11.5295782 0"></polygon>
                                <polygon id="Path" fill="#FFFFFF" opacity="0.5" points="7.16427695 0 6.73714936 1.94375296 6.26300907 1.94375296 6.69013666 0"></polygon>
                                <polygon id="Path" fill="#4F3500" opacity="0.1" points="13.6646428 1.70693314 0.0475860265 1.70693314 0.0475860265 1.94375296 13.6646428 1.94375296"></polygon>
                            </g>
                            <g id="note" transform="translate(0.000000, 48.797191)" fill-rule="nonzero">
                                <polygon id="Path" fill="#1FC07C" points="28.3362692 11.0097708 28.3362692 16.3248325 18.2009778 16.3248325 18.2009778 15.5227608 10.1775173 15.5227608 10.1775173 16.3248325 0 16.3248325 0 11.0097708"></polygon>
                                <polygon id="Path" fill="#96E3C1" points="18.2569251 15.565538 10.2695204 15.565538 10.2695204 16.3248325 18.2569251 16.3248325"></polygon>
                                <polygon id="Path" fill="#96E3C1" points="18.2569251 11.0097708 10.2695204 11.0097708 10.2695204 15.565538 18.2569251 15.565538"></polygon>
                                <polygon id="Path" fill="#00A15D" points="28.3362692 15.8407823 0 15.8407823 0 16.2394119 28.3362692 16.2394119"></polygon>
                                <polygon id="Path" fill="#1FC07C" points="31.37909 5.50488538 31.37909 10.8199471 21.2019153 10.8199471 21.2019153 9.97509829 13.1783034 9.97509829 13.1783034 10.8199471 3.04282085 10.8199471 3.04282085 5.50488538"></polygon>
                                <polygon id="Path" fill="#96E3C1" points="21.299746 10.0606526 13.3123412 10.0606526 13.3123412 10.8199471 21.299746 10.8199471"></polygon>
                                <polygon id="Path" fill="#96E3C1" points="21.299746 5.50488538 13.3123412 5.50488538 13.3123412 10.0606526 21.299746 10.0606526"></polygon>
                                <polygon id="Path" fill="#00A15D" points="31.37909 10.6927653 3.04282085 10.6927653 3.04282085 11.1369526 31.37909 11.1369526"></polygon>
                                <polygon id="Path" fill="#1FC07C" points="27.7657403 0 27.7657403 5.31506175 18.7871286 5.31506175 18.7871286 4.4702129 11.6784888 4.4702129 11.6784888 5.31506175 2.66246825 5.31506175 2.66246825 0"></polygon>
                                <polygon id="Path" fill="#96E3C1" points="20.5390407 4.55576722 12.551636 4.55576722 12.551636 5.31506175 20.5390407 5.31506175"></polygon>
                                <polygon id="Path" fill="#96E3C1" points="20.5390407 0 12.551636 0 12.551636 4.55576722 20.5390407 4.55576722"></polygon>
                                <polygon id="Path" fill="#00A15D" points="30.8085611 4.99805628 2.47229194 4.99805628 2.47229194 5.44224359 30.8085611 5.44224359"></polygon>
                                <polygon id="Path" fill="#00A15D" opacity="0.4" points="22.6309801 2.84735451 7.03652322 2.84735451 7.03652322 16.3248325 22.6309801 16.3248325"></polygon>
                                <polygon id="Path" fill="#96E3C1" points="41.4584341 3.41682541 13.1221649 3.41682541 13.1221649 16.8943034 41.4584341 16.8943034"></polygon>
                                <polygon id="Path" fill="#1FC07C" points="40.3173763 4.17611995 13.6926938 4.17611995 13.6926938 16.1350089 40.3173763 16.1350089"></polygon>
                                <path d="M38.4580007,6.37724482 C38.0771456,5.99668737 37.8658566,5.48749078 37.8658566,4.93541448 L16.862126,4.93541448 C16.862126,5.48749078 16.650837,5.99668737 16.2705168,6.37724482 C15.8901966,6.75780227 15.383103,6.96684087 14.8337517,6.96684087 L14.8337517,12.9700007 C15.383103,12.9700007 15.8901966,13.1790393 16.2705168,13.5595967 C16.650837,13.9401542 16.862126,14.4493507 16.862126,14.9960671 L37.9081144,14.9960671 C37.9081144,14.4493507 38.1199383,13.9401542 38.5002585,13.5595967 C38.8805787,13.1790393 39.3876723,12.9700007 39.9370237,12.9700007 L39.9370237,6.96684087 C39.3454145,6.96684087 38.8383209,6.75780227 38.4580007,6.37724482 Z M27.3853877,13.6024764 C25.7373335,13.6024764 24.4268068,11.9516075 24.4268068,9.92554105 C24.4268068,7.89411466 25.7373335,6.24860569 27.3853877,6.24860569 C29.0334418,6.24860569 30.3434336,7.89411466 30.3434336,9.92554105 C30.3434336,11.9944872 28.991184,13.6024764 27.3853877,13.6024764 Z" id="Shape" fill="#96E3C1"></path>
                            </g>
                            <g id="door" transform="translate(37.510537, 0.694299)" fill-rule="nonzero">
                                <path d="M22.3476593,8.06045406 L6.07323829,1.75441151 C5.74128276,1.09085841 5.26656915,0.474211654 4.6972568,0 L1.28080944,0 C0.569312341,0.0474783683 0,0.664125127 0,1.5175917 L0,62.6319761 C0,63.4848707 0.616898367,64.1015174 1.32839546,64.1489958 L4.6972568,64.1489958 L5.12438439,62.9162743 L22.3476593,57.036965 C23.438698,56.6577101 24.1983544,55.5199454 24.1983544,54.2397455 L24.1983544,10.8101952 C24.1031824,9.57747373 23.3916853,8.43970898 22.3476593,8.06045406 Z" id="Path" fill="#2D5887"></path>
                                <path d="M5.02921234,0.0949567365 L25.6689347,8.06045406 C26.7129606,8.48661532 27.4244577,9.57747373 27.4244577,10.8101952 L27.4244577,54.2397455 C27.4244577,55.5199454 26.6653746,56.6577101 25.5743359,57.036965 L4.98162631,64.1015174 C4.12794446,64.3858156 3.27368929,63.6747841 3.27368929,62.6314041 L3.27368929,1.51701967 C3.27368929,0.474211654 4.17553049,-0.236819813 5.02921234,0.0949567365 Z" id="Path" fill="#3E6A9C"></path>
                                <path d="M22.0157038,38.0719311 C22.4898441,36.8866879 22.7272009,35.464625 22.7272009,33.9945117 C22.7272009,32.5724487 22.4898441,31.1972921 22.0632898,30.012049 L24.7200808,25.6028531 C24.9574376,25.1761198 24.9574376,24.41761 24.7200808,23.8484416 C24.482724,23.2798452 24.0555964,23.1374101 23.7712269,23.5641434 L20.9716779,27.925861 C20.2601808,26.9780097 19.4059256,26.3138846 18.4094857,26.1245431 C17.318447,25.8871513 16.274421,26.2664062 15.3731532,27.1198728 L10.8656672,19.6760655 C10.8656672,19.6760655 10.8180811,19.6285871 10.8180811,19.5816808 C10.8180811,19.5342024 10.7704951,19.486724 10.7229091,19.486724 L10.6758964,19.4392456 C10.3909535,19.2018538 9.8216412,19.2968105 9.29991488,19.7235438 C8.8727873,20.1027987 8.58784446,20.5770104 8.63543049,20.9562653 C8.63543049,21.0512221 8.68301651,21.1461788 8.73002922,21.1936572 C8.77761524,21.3355202 8.8727873,21.4779553 8.96738602,21.6203904 L13.8544136,29.2060608 C13.2380886,30.533739 12.9055597,32.1457155 12.9055597,33.900127 C12.9055597,35.7489232 13.2851013,37.408378 13.9495857,38.7360562 L9.01497205,46.4166833 C8.92037332,46.5591184 8.82520127,46.7484599 8.77761524,46.890895 C8.73002922,46.9858517 8.73002922,47.0333301 8.68301651,47.1277148 C8.63543049,47.4600633 8.8727873,47.8867966 9.25232886,48.2660515 C9.77405517,48.7396912 10.3909535,48.8821263 10.7229091,48.6453065 C10.7704951,48.5978281 10.8180811,48.5028714 10.8656672,48.455393 L15.4677519,40.8697226 C16.3220071,41.6282324 17.366033,41.960009 18.4094857,41.7700955 C19.3583396,41.5807541 20.2125947,40.9641073 20.8770791,40.1112128 L23.7712269,44.6153655 C23.9134116,44.8047069 24.1031824,44.8996636 24.2459405,44.8521853 C24.4357112,44.8047069 24.577896,44.6153655 24.7200808,44.3304952 C24.9574376,43.7618989 24.9574376,43.002817 24.7200808,42.5760837 L22.0157038,38.0719311 Z" id="Path" fill="#1C3754" opacity="0.4"></path>
                                <path d="M15.8472935,35.6539664 C17.0002513,35.6539664 17.934772,33.9561858 17.934772,31.8614173 C17.934772,29.7660768 17.0002513,28.0682961 15.8472935,28.0682961 C14.6943356,28.0682961 13.7598149,29.7660768 13.7598149,31.8614173 C13.7598149,33.9561858 14.6943356,35.6539664 15.8472935,35.6539664 Z" id="Path" fill="#1C3754"></path>
                                <path d="M24.8622655,31.955802 C24.8622655,28.5899861 23.53387,25.6978098 21.6837483,24.559473 L21.6837483,24.0383551 L19.7854671,24.0383551 C17.1762622,24.1802181 15.0882103,27.6415628 15.0882103,31.9083236 C15.0882103,36.1756565 17.1762622,39.6370011 19.7854671,39.7788642 L21.6837483,39.7788642 L21.6837483,39.2577462 C23.53387,38.2143662 24.8622655,35.3696683 24.8622655,31.955802 Z" id="Path" fill="#CED7E2"></path>
                                <path d="M25.7641067,36.0806997 C26.2388203,34.8954566 26.4756038,33.4733937 26.4756038,32.0032803 C26.4756038,30.5812174 26.2388203,29.2060608 25.8116927,28.0208177 L28.4684837,23.6116218 C28.7058405,23.1848885 28.7058405,22.4258066 28.4684837,21.8572103 C28.2311269,21.2880419 27.8045726,21.1461788 27.5196298,21.5729121 L24.7200808,25.9346296 C24.0085837,24.9862063 23.1543285,24.3226532 22.1578886,24.1327398 C21.0668499,23.8959199 20.022824,24.2751749 19.1215561,25.1286414 L14.6140701,17.6848341 C14.6140701,17.6848341 14.566484,17.6373558 14.566484,17.5898774 C14.566484,17.542399 14.518898,17.4949207 14.471312,17.4949207 L14.4242993,17.4480143 C14.1393564,17.2106225 13.5700441,17.3055792 13.0483178,17.7323125 C12.6211902,18.1115674 12.3362474,18.5857791 12.3838334,18.965034 C12.3838334,19.0599907 12.4314194,19.1543754 12.4790054,19.2018538 C12.5260181,19.3442889 12.6211902,19.486724 12.7157889,19.6285871 L17.6028165,27.2148295 C16.9864915,28.5425077 16.6539626,30.1544841 16.6539626,31.9083236 C16.6539626,33.7576919 17.0335042,35.4171466 17.6979886,36.7448249 L12.763375,44.425452 C12.6687762,44.5673151 12.5736042,44.7572285 12.5260181,44.8996636 C12.4790054,44.9940483 12.4790054,45.0415267 12.4314194,45.1364834 C12.3838334,45.46826 12.6211902,45.8949933 13.0007318,46.2742482 C13.5224581,46.7484599 14.1393564,46.890895 14.471312,46.6535031 C14.518898,46.6060247 14.566484,46.51164 14.6140701,46.4641617 L19.2161548,38.8779193 C20.07041,39.6364291 21.1144359,39.9687777 22.1578886,39.7788642 C23.1067425,39.5895228 23.9609976,38.972876 24.625482,38.1194094 L27.5196298,42.6235621 C27.6618145,42.8134756 27.8515853,42.9084323 27.9943434,42.8609539 C28.1841142,42.8134756 28.3262989,42.6235621 28.4684837,42.3392639 C28.7058405,41.7700955 28.7058405,41.0115857 28.4684837,40.5848524 L25.7641067,36.0806997 Z" id="Path" fill="#E6EDF5"></path>
                                <path d="M14.6140701,46.4641617 C14.6140701,46.51164 14.6140701,46.51164 14.566484,46.5591184 C14.566484,46.5591184 14.566484,46.6065968 14.518898,46.6065968 C14.518898,46.6065968 14.518898,46.6535031 14.471312,46.6535031 C14.471312,46.6535031 14.471312,46.6535031 14.4242993,46.7009815 C14.0917704,46.9383733 13.4754454,46.7959382 12.9531457,46.3217266 C12.5736042,45.98995 12.3362474,45.5157384 12.3838334,45.1839618 C12.3838334,45.0890051 12.4314194,44.9940483 12.4790054,44.947142 C12.4790054,44.8996636 12.5260181,44.8996636 12.5260181,44.8521853 C12.5736042,44.8047069 12.6687762,44.7572285 12.763375,44.7097502 C13.0953305,44.6147934 13.6176301,44.7572285 14.0917704,45.1364834 C14.566484,45.5632167 14.7562548,46.0849068 14.6140701,46.4641617 Z" id="Path" fill="#CED7E2"></path>
                                <path d="M23.53387,31.8614173 C23.53387,30.533739 23.1543285,29.3484959 22.5374301,28.7318492 L22.5374301,28.2576375 L21.5885762,28.2576375 C20.4975376,28.2576375 19.6432824,29.8696139 19.6432824,31.8614173 C19.6432824,33.8526486 20.4975376,35.464625 21.5885762,35.464625 L22.5374301,35.464625 L22.5374301,34.9904134 C23.1067425,34.3737666 23.53387,33.1885235 23.53387,31.8614173 Z" id="Path" fill="#CED7E2"></path>
                                <path d="M22.6796149,35.464625 C23.7540271,35.464625 24.6249087,33.8515045 24.6249087,31.8614173 C24.6249087,29.87133 23.7540271,28.2576375 22.6796149,28.2576375 C21.6052027,28.2576375 20.734321,29.87133 20.734321,31.8614173 C20.734321,33.8515045 21.6052027,35.464625 22.6796149,35.464625 Z" id="Path" fill="#FFFFFF"></path>
                            </g>
                            <path d="M51.460123,19.7542899 C50.8908107,20.2285015 50.2739123,20.3228862 50.0365555,19.9436313 C49.9889695,19.8492466 49.9419568,19.8017682 49.9419568,19.7068115 C49.8943708,19.3275566 50.1787403,18.8533449 50.6058679,18.47409 C51.1281675,18.0473567 51.6974798,17.9524 51.9818493,18.1897918 C51.9818493,18.1897918 52.0294354,18.1897918 52.0294354,18.2366982 L52.0770214,18.2841765 L52.1240341,18.3316549 C52.2667922,18.7109098 51.9818493,19.3275566 51.460123,19.7542899 Z" id="Path" fill="#CED7E2" fill-rule="nonzero"></path>
                            <g id="Group-10" transform="translate(25.188633, 19.231722) scale(-1, 1) translate(-25.188633, -19.231722) translate(18.230232, 12.278336)" fill-rule="nonzero">
                                <path d="M12.5018767,11.1312159 C7.94680465,17.0580036 -1.3525369,12.695714 0.165629337,5.53677688 C1.30425402,0.131679272 7.99439068,-1.85955205 11.8849783,2.02795386 C14.3525718,4.49339684 14.5899286,8.42895315 12.5018767,11.1312159 Z" id="Path" fill="url(#linearGradient-22)"></path>
                                <path d="M12.7403802,9.36518299 C12.7119308,9.47795218 12.6834814,9.59072138 12.62628,9.70319303 C12.5693813,9.87219805 12.5124826,10.0412031 12.4268318,10.1819414 C12.3983824,10.2664439 12.3411811,10.3509464 12.3127317,10.4354489 C12.1701822,10.7169256 11.970734,10.9984023 11.7997351,11.2519098 C11.7140843,11.364679 11.6287362,11.4491815 11.5715349,11.5616531 C11.0869876,12.124904 10.4598909,12.6036524 9.8040422,12.9416624 C9.69024473,12.9978983 9.54769524,13.0541341 9.43359511,13.1103699 C9.20539486,13.1948724 9.61125234,12.9818309 9.38305209,13.0383643 C9.26925461,13.0663334 9.12670512,13.0946001 9.012605,13.1228668 L5.2871471,9.0714649 L6.06960868,9.13994214 L6.21215817,8.83019879 L5.47336234,8.10961352 C5.47336234,8.10961352 7.22596046,6.84250744 7.16906173,6.78627162 C7.14030971,6.75800493 7.82196868,4.55002766 7.82196868,4.55002766 L8.38981812,4.55002766 L9.1666553,4.55002766 L12.7403802,9.36518299 Z" id="Path" fill="url(#linearGradient-23)"></path>
                                <path d="M8.8559502,11.9863986 C6.7662081,9.56546248 5.72133704,8.33711453 5.72133704,8.30135477 L5.72133704,8.30135477 L5.72133704,8.29062684 C6.18331803,8.29062684 6.66695437,8.17083162 7.17224607,7.9312412 C7.44293805,7.8239619 7.72626233,7.58973544 8.0222189,7.22856181 C8.24599094,6.87096415 8.36870463,6.56521816 8.39035999,6.31132382 L8.39035999,6.31132382 L9.35402345,6.31132382 C9.36124191,6.31132382 9.53087555,6.06458144 9.86292438,5.57109668 C9.86292438,5.56036875 9.85390131,5.5532168 9.83585518,5.54964082 L9.83585518,5.54964082 L8.35246312,5.54964082 C8.28388781,5.23137891 8.15395566,4.96139268 7.96266666,4.73968213 L7.96266666,4.73968213 L9.35402345,4.73968213 C9.39372494,4.70749834 9.56696781,4.45717999 9.87375206,3.98872706 L9.87375206,3.98872706 L9.87375206,3.97799913 L4.66563831,3.97799913 C4.65481063,3.97799913 4.48337237,4.22295352 4.15132354,4.71286231 L4.15132354,4.71286231 L4.15132354,4.73968213 L5.52643881,4.73968213 C5.75742931,4.73968213 6.01729361,4.78616983 6.30603172,4.87914522 C6.71026509,5.03648819 6.98276168,5.25641074 7.12352151,5.53891289 L7.12352151,5.53891289 L7.12352151,5.54964082 L4.66563831,5.54964082 C4.65841985,5.54964082 4.48337237,5.7963832 4.14049586,6.28986796 C4.14049586,6.30417187 4.14771431,6.31132382 4.16215122,6.31132382 L4.16215122,6.31132382 L7.2588675,6.31132382 C7.2588675,6.42575507 7.23721215,6.53661035 7.19390143,6.64388964 C6.91599099,7.37696483 6.206778,7.74350243 5.06626244,7.74350243 C4.82444427,7.74350243 4.61330452,7.73098651 4.4328432,7.70595467 L4.4328432,7.70595467 L4.42201552,7.7327745 L4.42201552,8.44618182 C4.42201552,8.45690975 5.43981738,9.63698201 7.47542109,11.9863986 L7.47542109,11.9863986 L8.8559502,11.9863986 Z" id="`" fill="url(#linearGradient-24)"></path>
                            </g>
                            <path d="M21.5680718,13.922459 L22.2325562,13.7331175 C22.374741,13.6856392 22.374741,13.4957257 22.2325562,13.4482473 L21.5680718,13.2589059 C21.330715,13.2114275 21.1409443,13.021514 21.0463455,12.7372159 L20.8565748,12.0736628 C20.8089887,11.9312276 20.6192179,11.9312276 20.5716319,12.0736628 L20.4294472,12.7372159 C20.3818611,12.9740357 20.1920904,13.1639491 19.9077209,13.2589059 L19.2432365,13.4482473 C19.1010517,13.4957257 19.1010517,13.6856392 19.2432365,13.7331175 L19.9077209,13.922459 C20.1450777,13.9699373 20.3348484,14.1598508 20.4294472,14.444149 L20.6192179,15.1077021 C20.666804,15.2501372 20.8565748,15.2501372 20.9041608,15.1077021 L21.0939316,14.444149 C21.1409443,14.1598508 21.330715,13.9699373 21.5680718,13.922459 Z" id="Path" fill="#FFFFFF" fill-rule="nonzero"></path>
                            <path d="M19.3854212,16.387902 L19.8125488,16.2929452 C19.9077209,16.2454668 19.9077209,16.1510821 19.8125488,16.1036038 L19.3854212,15.9611687 C19.2432365,15.9136903 19.1010517,15.8187336 19.0534657,15.6293921 L18.9582936,15.2026588 C18.9112809,15.1077021 18.8161089,15.1077021 18.7685228,15.2026588 L18.6739241,15.6293921 C18.6263381,15.7718272 18.5317394,15.9136903 18.3413953,15.9611687 L17.914841,16.0561254 C17.8196689,16.1036038 17.8196689,16.1979885 17.914841,16.2454668 L18.3413953,16.3404236 C18.4841533,16.387902 18.6263381,16.4828587 18.6739241,16.6722001 L18.7685228,17.0989334 C18.8161089,17.1938902 18.9112809,17.1938902 18.9582936,17.0989334 L19.0534657,16.6722001 C19.1010517,16.5303371 19.2432365,16.4353803 19.3854212,16.387902 Z" id="Path" fill="#FFFFFF" fill-rule="nonzero"></path>
                            <line x1="20.0023196" y1="26.2021955" x2="28.7323488" y2="26.2021955" id="Path" stroke="#F8AA00" stroke-width="2.44091372" stroke-linecap="round" stroke-linejoin="round"></line>
                        </g>
                        <polygon id="Path" fill="#4F3500" fill-rule="nonzero" opacity="0.1" points="27.2617198 63.8473933 15.2098419 63.8473933 15.2098419 64.0847851 27.2617198 64.0847851"></polygon>
                        <path d="M16.5775893,13.6123506 L17.0047168,13.0912326 C17.0998889,12.9962759 16.9571308,12.8063624 16.8149461,12.8538408 L16.1980477,13.0912326 C15.9606909,13.1856173 15.7239074,13.138139 15.4865506,12.9962759 L14.9648243,12.5695426 C14.8696522,12.4745859 14.6798815,12.617021 14.7274675,12.758884 L14.9648243,13.3755308 C15.059423,13.6123506 15.011837,13.8497425 14.8696522,14.0865623 L14.4425246,14.5607739 C14.3479259,14.6557307 14.4901107,14.8450721 14.6322954,14.7975937 L15.2491938,14.5607739 C15.4865506,14.4658172 15.7239074,14.5132956 15.9606909,14.6557307 L16.4829905,15.082464 C16.5775893,15.1768487 16.76736,15.0349856 16.7203473,14.8925505 L16.4354045,14.2764757 C16.3408058,14.0390839 16.3878185,13.8022641 16.5775893,13.6123506 Z" id="Path" fill="url(#linearGradient-25)" fill-rule="nonzero"></path>
                        <path d="M43.2122118,12.199509 L43.5917534,12.4843792 C43.6869255,12.5318576 43.7815242,12.4369009 43.7339382,12.3419441 L43.5441674,11.9152108 C43.4495687,11.7733478 43.4971547,11.5834343 43.5917534,11.3935208 L43.8766962,11.0142659 C43.9237089,10.9198812 43.8291102,10.8249245 43.7339382,10.8724028 L43.3073839,11.0617443 C43.1646258,11.156701 42.974855,11.1092226 42.7850843,11.0142659 L42.4055427,10.7299677 C42.310944,10.6824894 42.2157719,10.7774461 42.2633579,10.8724028 L42.4531287,11.2991361 C42.5477275,11.4409992 42.5007147,11.6309127 42.4055427,11.8202541 L42.1211732,12.199509 C42.0735872,12.2944658 42.1681859,12.3894225 42.2633579,12.3419441 L42.6904855,12.1526027 C42.8802563,12.057646 43.0700271,12.1051243 43.2122118,12.199509 Z" id="Path" fill="url(#linearGradient-26)" fill-rule="nonzero"></path>
                        <path d="M13.5892105,44.3260401 L14.0633508,43.8993069 C14.1585229,43.8043501 14.0633508,43.6150087 13.9211661,43.662487 L13.3042677,43.8043501 C13.0669109,43.8518285 12.8295541,43.7568718 12.6873693,43.6150087 L12.2602417,43.140797 C12.165643,43.0458403 11.9758722,43.140797 12.0234583,43.2826601 L12.165643,43.8993069 C12.213229,44.1361267 12.118057,44.3735185 11.9758722,44.5153816 L11.5011586,44.9421149 C11.4065599,45.0370716 11.5011586,45.2269851 11.6439167,45.1795067 L12.2602417,45.0370716 C12.4975986,44.9895932 12.7349554,45.08455 12.8771401,45.2269851 L13.3042677,45.7011967 C13.3994398,45.7955815 13.5892105,45.7011967 13.5416245,45.5587616 L13.3994398,44.9421149 C13.3518537,44.7527734 13.4464525,44.5153816 13.5892105,44.3260401 Z" id="Path" fill="url(#linearGradient-27)" fill-rule="nonzero"></path>
                        <path d="M22.3300177,29.3100265 L22.7095592,29.5948967 C22.8047313,29.6418031 22.89933,29.5474184 22.851744,29.4524616 L22.6619732,29.0257283 C22.5673745,28.8832932 22.6149605,28.6939518 22.7095592,28.5040383 L22.9945021,28.1247834 C23.0415148,28.0298267 22.946916,27.935442 22.851744,27.9823483 L22.4251897,28.1722618 C22.2824316,28.2672185 22.0926609,28.2197401 21.9028901,28.1247834 L21.5233485,27.8404852 C21.4287498,27.7930068 21.3335777,27.8879636 21.3811638,27.9823483 L21.5709345,28.4090816 C21.6655333,28.5515167 21.6185206,28.7414302 21.5233485,28.9307716 L21.238979,29.3100265 C21.191393,29.4049833 21.2859917,29.49994 21.3811638,29.4524616 L21.8082914,29.2625481 C21.9504761,29.1681634 22.1402469,29.2150698 22.3300177,29.3100265 Z" id="Path" fill="url(#linearGradient-28)" fill-rule="nonzero"></path>
                        <g id="37" transform="translate(1.553324, 29.985020)">
                            <path d="M0.515420419,31.5362584 C0.788037114,31.5362584 1.03055417,31.3246057 1.03055417,31.0185673 C1.03055417,30.715389 0.818423412,30.5037363 0.515420419,30.5037363 C0.24251706,30.5037363 0,30.715389 0,31.0185673 C0,31.3246057 0.212130762,31.5362584 0.515420419,31.5362584 Z" id="Path" fill="url(#linearGradient-29)" fill-rule="nonzero"></path>
                            <path d="M24.9153313,7.24195596 C25.187948,7.24195596 25.4304651,7.03030322 25.4304651,6.72712496 C25.4304651,6.45254844 25.2183343,6.2094338 24.9153313,6.2094338 C24.6424279,6.2094338 24.3999109,6.42394671 24.3999109,6.72712496 C24.3999109,7.03030322 24.6424279,7.24195596 24.9153313,7.24195596 Z" id="Path" fill="url(#linearGradient-30)" fill-rule="nonzero"></path>
                            <path d="M4.5287051,11.6151592 C4.8013218,11.6151592 5.04383886,11.4035065 5.04383886,11.0974681 C5.04383886,10.8257517 4.83170809,10.5826371 4.5287051,10.5826371 C4.25580174,10.5826371 4.01328468,10.7942898 4.01328468,11.0974681 C4.01328468,11.4035065 4.25580174,11.6151592 4.5287051,11.6151592 Z" id="Path" fill="url(#linearGradient-31)" fill-rule="nonzero"></path>
                            <path d="M33.497748,16.1084897 C33.9523959,15.6851842 33.9827822,14.9873022 33.5585206,14.5296747 C33.1339725,14.0749073 32.4370942,14.0463056 31.9520601,14.4696111 C31.4974123,14.8957767 31.467026,15.5936587 31.8912875,16.0484261 C32.3158357,16.4745917 33.0431002,16.5031935 33.497748,16.1084897 Z" id="Path" fill="#EAEEF9" fill-rule="nonzero"></path>
                            <path d="M33.255231,11.1603918 C33.5281343,11.1603918 33.7402651,10.9487391 33.7402651,10.6741626 C33.7402651,10.399586 33.5281343,10.1879333 33.255231,10.1879333 C32.9826143,10.1879333 32.7704835,10.399586 32.7704835,10.6741626 C32.7704835,10.9487391 32.9826143,11.1603918 33.255231,11.1603918 Z" id="Path" fill="url(#linearGradient-32)" fill-rule="nonzero"></path>
                            <g id="Group-13" transform="translate(16.759473, 23.251587) scale(-1, 1) translate(-16.759473, -23.251587) translate(1.998182, 11.037404)">
                                <path d="M2.87953176,10.2336961 C2.39449764,10.0535052 1.90946352,9.83899229 1.39432976,9.81039057 C0.636392285,9.74746679 0.12125853,10.3566835 0.151644828,11.1146291 C0.181744463,11.4178073 0.36377559,11.660922 0.697164882,11.660922 C0.878909345,11.660922 1.06094047,11.5722566 1.182199,11.4492692 C1.97023612,10.6913236 0.939681942,9.71886506 0.394161888,9.23263579 C0.181744463,9.02098305 0,8.80647014 0,8.50329189" id="Path" stroke="#EB358A" stroke-linecap="round" stroke-linejoin="round"></path>
                                <path d="M22.5509333,20.132752 C22.5509333,20.1956758 22.0661858,22.4409109 21.914541,23.2303184 C21.8841547,23.4133695 21.7327965,23.5363569 21.5811517,23.5964205 C20.7019557,23.8395351 20.0959497,23.8080732 19.24714,23.5363569 C19.1562678,23.504895 19.0653955,23.4133695 19.0350092,23.3218439 L18.4591029,20.498854" id="Path" fill="#DB1A74" fill-rule="nonzero"></path>
                                <path d="M13.609335,20.132752 C13.609335,20.1956758 13.1245876,22.4409109 12.9729427,23.2303184 C12.9425564,23.4133695 12.7909116,23.5363569 12.6395534,23.5964205 C11.6998715,23.8395351 11.0634792,23.8080732 10.1538969,23.504895 L9.54789092,20.5303159" id="Path" fill="#DB1A74" fill-rule="nonzero"></path>
                                <path d="M25.7942406,3.79830865 C25.5821099,2.82585011 25.7942406,2.85445183 25.3699791,2.58273548 C24.9153313,2.24809533 23.5513878,1.42722592 22.0357995,2.45974807 C21.1869898,3.03750285 20.8232142,3.64385936 20.8232142,3.64385936 L21.2173761,4.91949615 C21.2173761,4.91949615 23.8543908,4.55625428 23.8240045,4.52479239" id="Path" fill="#E01B77" fill-rule="nonzero"></path>
                                <path d="M26.0972436,7.19905337 C26.4610192,5.77182746 26.7643089,2.37108274 24.5211694,2.33962084 C22.9754815,2.30815895 21.914541,3.67532125 21.2173761,4.91949615 C21.2173761,4.89089443 21.4598932,4.91949615 21.4902795,4.91949615 C21.5811517,4.91949615 21.7024102,4.95095804 21.7932825,4.95095804 C21.9750269,4.98241994 22.1874444,5.01102166 22.3691888,5.07108527 C22.7633507,5.16261078 23.1572259,5.25413629 23.5513878,5.40572542 C23.9756494,5.55731454 24.3999109,5.77182746 24.7940728,5.9834802 C25.0666895,6.13506932 25.3092065,6.31812034 25.5517236,6.49831119 C25.7337547,6.65276049 25.9154992,6.98454046 26.0972436,7.19905337 Z" id="Path" fill="#FF78B8" fill-rule="nonzero"></path>
                                <path d="M2.30362541,11.329142 C2.30362541,17.5843386 7.82017187,22.6840255 14.6398892,22.6840255 C21.4598932,22.6840255 26.9764396,17.6129403 26.9764396,11.329142 C26.9764396,11.2061546 26.9764396,11.0860274 26.9764396,10.96304 C26.7643089,4.85943253 21.3082484,0 14.6398892,0 C7.97153003,0 2.51575617,4.89089443 2.30362541,10.9945019 C2.30362541,11.0860274 2.30362541,11.2061546 2.30362541,11.329142 Z" id="Path" fill="url(#linearGradient-33)" fill-rule="nonzero"></path>
                                <path d="M18.0953273,1.61027694 L18.2165858,1.21557318 C18.2469721,1.15550956 18.1861995,1.06398405 18.1257136,1.03252216 C15.8825741,0.334640145 13.366818,0.334640145 11.1239652,1.03252216 C11.0631926,1.06398405 11.0027066,1.12404767 11.0330929,1.21557318 L11.1543514,1.61027694 C11.1844511,1.70180245 11.27561,1.76186606 11.3664822,1.73326434 C13.4579769,1.09544594 15.7616023,1.09544594 17.8528102,1.73326434 C17.9740688,1.76186606 18.064941,1.70180245 18.0953273,1.61027694 Z" id="Path" fill="#DB1A74" fill-rule="nonzero"></path>
                                <path d="M25.2487206,9.14111028 L27.4614738,9.14111028 L27.4614738,16.1857144 L25.2487206,16.1857144 C24.1272942,16.1857144 23.1876122,14.6068993 23.1876122,12.6648424 C23.1876122,10.7199253 24.1272942,9.14111028 25.2487206,9.14111028 Z" id="Path" fill="#DB267B" fill-rule="nonzero"></path>
                                <path d="M22.6386522,8.6977836 C22.9554151,8.6977836 23.2119786,8.31452052 23.2119786,7.83973194 C23.2119786,7.36494336 22.9554151,6.98168029 22.6386522,6.98168029 C22.3218894,6.98168029 22.0653258,7.36494336 22.0653258,7.83973194 C22.0653258,8.31452052 22.3218894,8.6977836 22.6386522,8.6977836 Z" id="Path" fill="#DB1A74" fill-rule="nonzero"></path>
                                <path d="M25.5052841,8.6977836 C25.822047,8.6977836 26.0786105,8.31452052 26.0786105,7.83973194 C26.0786105,7.36494336 25.822047,6.98168029 25.5052841,6.98168029 C25.1885213,6.98168029 24.9319578,7.36494336 24.9319578,7.83973194 C24.9319578,8.31452052 25.1885213,8.6977836 25.5052841,8.6977836 Z" id="Path" fill="#DB1A74" fill-rule="nonzero"></path>
                                <path d="M17.458935,2.39968446 C16.5192531,2.15656982 16.579739,1.94491708 16.0949916,2.24809533 C15.6099574,2.58273548 14.3368862,3.31207938 14.5794033,5.13400906 C14.7006618,6.16653122 15.0644374,6.77288772 15.0644374,6.77288772 L16.3676083,6.98454046 C16.3676083,6.98454046 17.2468043,4.46472877 17.1860317,4.46472877" id="Path" fill="#E01B77" fill-rule="nonzero"></path>
                                <path d="M20.4898249,3.58379574 C19.3987848,2.6113372 16.6101253,0.943856819 15.5795711,2.91737562 C14.85202,4.28167775 15.6099574,5.86335297 16.3979945,7.01600235 C16.3676083,6.98454046 16.5192531,6.80434961 16.5192531,6.80434961 C16.579739,6.7128241 16.6405116,6.62129859 16.7009975,6.56123498 C16.8222561,6.40964585 16.9435146,6.25805673 17.0647731,6.10360743 C17.3376765,5.80042918 17.6102932,5.49725093 17.8831965,5.19407268 C18.1861995,4.89089443 18.5803614,4.6163179 18.944137,4.34460154 C19.1866541,4.19301241 19.4592708,4.03856312 19.7321741,3.91843588 C19.9746912,3.76684676 20.2172083,3.64385936 20.4898249,3.58379574 Z" id="Path" fill="#FF78B8" fill-rule="nonzero"></path>
                                <path d="M19.5504297,20.8020323 C19.5504297,20.8620959 19.0653955,23.1101912 18.9137507,23.8995987 C18.8833644,24.0826497 18.7320063,24.202777 18.5803614,24.2628406 C17.7014521,24.5059552 17.0951594,24.4773535 16.2463497,24.202777 C16.1554775,24.1741753 16.0646053,24.0826497 16.034219,23.9911242 L15.4583126,21.1652741" id="Path" fill="url(#linearGradient-34)" fill-rule="nonzero"></path>
                                <path d="M10.8510618,19.9525611 C10.8510618,20.0126247 10.3055417,22.5324364 10.1237973,23.3847677 C10.093411,23.5649586 9.94176615,23.687946 9.79040798,23.7480096 C8.78995344,24.019726 8.12317486,23.9911242 7.21387922,23.687946 C7.12300699,23.6564841 7.03213475,23.5649586 7.00174846,23.4734331 L6.15293874,18.705526" id="Path" fill="url(#linearGradient-35)" fill-rule="nonzero"></path>
                                <path d="M27.4614738,16.1571126 C28.5998133,16.1571126 29.5225821,14.5782976 29.5225821,12.6333805 C29.5225821,10.6884634 28.5998133,9.11250856 27.4614738,9.11250856 C26.3231342,9.11250856 25.4003654,10.6884634 25.4003654,12.6333805 C25.4003654,14.5782976 26.3231342,16.1571126 27.4614738,16.1571126 Z" id="Path" fill="url(#linearGradient-36)" fill-rule="nonzero"></path>
                                <path d="M28.4616416,13.8174918 C28.7795511,13.8174918 29.037548,13.2883599 29.037548,12.6333805 C29.037548,11.9784011 28.7795511,11.4492692 28.4616416,11.4492692 C28.1434455,11.4492692 27.8857353,11.9784011 27.8857353,12.6333805 C27.8857353,13.2883599 28.1434455,13.8174918 28.4616416,13.8174918 Z" id="Path" fill="#DB1A74" fill-rule="nonzero"></path>
                                <path d="M26.7643089,13.8174918 C27.0822184,13.8174918 27.3402152,13.2883599 27.3402152,12.6333805 C27.3402152,11.9784011 27.0822184,11.4492692 26.7643089,11.4492692 C26.4461127,11.4492692 26.1884025,11.9784011 26.1884025,12.6333805 C26.1884025,13.2883599 26.4461127,13.8174918 26.7643089,13.8174918 Z" id="Path" fill="#DB1A74" fill-rule="nonzero"></path>
                            </g>
                            <g id="Group-11" transform="translate(12.023654, 0.000000)" fill-rule="nonzero">
                                <g id="Group-2" transform="translate(0.000000, 3.146189)">
                                    <path d="M9.07532983,5.52237282 C9.00399152,5.8607506 8.8971589,6.18140217 8.75448227,6.48397649 C8.73664769,6.5552324 8.70097853,6.60858657 8.66530937,6.67984247 C8.54064217,6.9113364 8.41580012,7.12510411 8.25546376,7.33869631 C8.18412545,7.42767844 8.13062171,7.49893434 8.0592834,7.57019025 C7.66727237,8.01527638 7.18591359,8.38928212 6.66906051,8.65622849 C6.57988762,8.70975817 6.47288015,8.74538612 6.36604752,8.7987403 C6.18770174,8.8699962 6.02736538,8.92352588 5.84919444,8.97688005 C5.15399557,9.17274603 4.42312755,9.20837399 3.65659036,9.06586218 C1.17898273,8.54952014 -0.407420526,6.12787248 0.091772826,3.65287065 C0.608625908,1.17786882 3.03272981,-0.406960748 5.51033745,0.0916550655 C6.3838821,0.269619316 7.18591359,0.714880956 7.82760873,1.33810685 C8.91499348,2.44204682 9.3961774,4.00897466 9.07532983,5.52237282 Z" id="Path" fill="url(#linearGradient-37)"></path>
                                    <path d="M4.58363875,8.44263629 C4.31612008,8.44263629 4.04877624,8.40718385 3.79926699,8.35365416 C1.71384524,7.92629425 0.359116656,5.8607506 0.804806273,3.77748073 C1.01864637,2.76252288 1.60683776,1.89007683 2.46237299,1.33810685 C3.31808307,0.76823513 4.35178923,0.572544657 5.36783567,0.786136859 C6.09870369,0.946374887 6.77606798,1.3024789 7.31075564,1.83672266 C8.23762919,2.76252288 8.62981507,4.08023056 8.36247124,5.3623103 C8.3089675,5.6471584 8.21979461,5.9320065 8.09495256,6.18140217 C8.07729283,6.23475634 8.04162367,6.28811051 8.02378909,6.34164019 C7.91678162,6.53750617 7.80977415,6.71547042 7.66727237,6.89361018 C7.61376863,6.96486608 7.5602649,7.03594648 7.50676116,7.08947616 C7.16807901,7.48120812 6.77606798,7.78378245 6.33037837,8.01527638 C6.24120547,8.05090433 6.17004201,8.10443401 6.08086911,8.14006196 C5.92035791,8.21114236 5.77785613,8.26467204 5.6351795,8.30012448 C5.29649735,8.40700834 4.93998063,8.44263629 4.58363875,8.44263629 Z M4.58363875,1.05325874 C3.90627446,1.05325874 3.24674475,1.24912472 2.65855336,1.62295495 C1.87418159,2.13929699 1.33949393,2.92276091 1.14331357,3.84873663 C0.751302537,5.75404225 1.98118907,7.62354442 3.88843989,8.01527638 C4.44096213,8.13988646 5.02915352,8.10443401 5.56401603,7.9619222 C5.68868323,7.92629425 5.81352528,7.8906663 5.97386164,7.81958591 C6.04519996,7.78395795 6.13437285,7.74833 6.20571116,7.71270205 C6.61555678,7.49893434 6.9720735,7.21408624 7.27508649,6.87570845 C7.32859022,6.82235428 7.38209396,6.75109838 7.41776312,6.6977442 C7.54243032,6.53750617 7.64943779,6.37726815 7.73861068,6.19912839 C7.75644526,6.14577421 7.79211442,6.11014626 7.809949,6.05661658 C7.91678162,5.80739643 8.00595451,5.55817627 8.05945825,5.30878061 C8.3089675,4.13358474 7.95245078,2.94066264 7.09691555,2.10384454 C6.61555678,1.62295495 5.99169622,1.28475267 5.31433193,1.14224087 C5.06482268,1.08888669 4.81531343,1.05325874 4.58363875,1.05325874 Z" id="Shape" fill="#F9B400"></path>
                                    <path d="M8.06050734,5.71630822 C8.04407155,5.78282543 8.02763576,5.84934264 7.99458934,5.91568434 C7.96171776,6.0153724 7.92884619,6.11506046 7.87936397,6.19807534 C7.86292819,6.24791938 7.82988176,6.29776341 7.81344597,6.34760744 C7.73109218,6.5136372 7.61586682,6.67966696 7.51707724,6.82919906 C7.46759503,6.89571627 7.41828766,6.9455603 7.38524124,7.011902 C7.10530829,7.34413704 6.74302156,7.62652804 6.36412419,7.82590416 C6.29838103,7.85907501 6.21602724,7.89224587 6.15010924,7.92541672 C6.01827324,7.97526075 6.25274549,7.84959763 6.12090949,7.88294399 C6.05516634,7.89944166 5.97281255,7.91611484 5.90689455,7.93278802 L3.75462049,5.54305782 L4.20666472,5.5834493 L4.28901851,5.40074636 L3.86220088,4.97570722 C3.86220088,4.97570722 4.87471306,4.22830132 4.84184148,4.19513047 C4.82523084,4.17845729 5.21903933,2.876076 5.21903933,2.876076 L5.5717893,3.12674158 L5.99589259,2.876076 L8.06050734,5.71630822 Z" id="Path" fill="url(#linearGradient-38)"></path>
                                    <path d="M5.49924932,6.73723331 C4.47954559,5.57000692 3.96969373,4.97777315 3.96969373,4.96053199 L3.96969373,4.96053199 L3.96969373,4.95535964 C4.19512046,4.95535964 4.43111407,4.89760177 4.67767456,4.78208601 C4.80976053,4.73036253 4.94801052,4.61743295 5.09242452,4.44329726 C5.20161559,4.27088568 5.26149457,4.12347378 5.27206145,4.00106156 L5.27206145,4.00106156 L5.74228752,4.00106156 C5.74580981,4.00106156 5.82858369,3.88209757 5.99060915,3.64416959 C5.99060915,3.63899724 5.98620629,3.63554901 5.97740056,3.63382489 L5.97740056,3.63382489 L5.25356941,3.63382489 C5.22010763,3.48037859 5.15670636,3.35020785 5.06336561,3.24331267 L5.06336561,3.24331267 L5.74228752,3.24331267 C5.76166013,3.22779563 5.84619515,3.10710752 5.99589259,2.88124835 L5.99589259,2.88124835 L5.99589259,2.876076 L3.45455843,2.876076 C3.44927499,2.876076 3.36562054,2.99417794 3.20359507,3.2303818 L3.20359507,3.2303818 L3.20359507,3.24331267 L3.87459183,3.24331267 C3.98730519,3.24331267 4.11410773,3.26572617 4.25499944,3.31055318 C4.45224783,3.38641428 4.58521437,3.4924474 4.65389908,3.62865255 L4.65389908,3.62865255 L4.65389908,3.63382489 L3.45455843,3.63382489 C3.45103613,3.63382489 3.36562054,3.75278888 3.19831163,3.99071686 C3.19831163,3.99761332 3.20183393,4.00106156 3.20887851,4.00106156 L3.20887851,4.00106156 L4.71994207,4.00106156 C4.71994207,4.05623326 4.70937519,4.10968085 4.68824144,4.16140432 C4.55263317,4.51484806 4.20656791,4.69156993 3.65004567,4.69156993 C3.53204886,4.69156993 3.4290218,4.68553552 3.34096449,4.67346671 L3.34096449,4.67346671 L3.33568105,4.68639758 L3.33568105,5.03035868 C3.33568105,5.03553103 3.83232432,5.60448924 4.82561085,6.73723331 L4.82561085,6.73723331 L5.49924932,6.73723331 Z" id="`" fill="url(#linearGradient-39)"></path>
                                </g>
                                <path d="M3.02582991,2.63027244 C2.9705449,2.63027244 2.9152599,2.61200666 2.8599749,2.55720932 L1.25670981,0.968086385 C1.16456814,0.876757481 1.16456814,0.730631234 1.25670981,0.63930233 C1.34885148,0.547973426 1.49627816,0.547973426 1.58841983,0.63930233 L3.19168492,2.22842526 C3.28382659,2.31975417 3.28382659,2.46588041 3.19168492,2.55720932 C3.13639991,2.61200666 3.08111491,2.63027244 3.02582991,2.63027244 Z" id="Path" fill="#FAC522"></path>
                                <path d="M4.18681497,1.97270433 C4.05781663,1.97270433 3.94724662,1.86310965 3.94724662,1.73524918 L3.94724662,0.237455151 C3.96567496,0.109594685 4.05781663,0 4.18681497,0 C4.31581331,0 4.42638332,0.109594685 4.42638332,0.237455151 L4.42638332,1.75351496 C4.42638332,1.86310965 4.31581331,1.97270433 4.18681497,1.97270433 Z" id="Path" fill="#FAC522"></path>
                                <path d="M5.71636672,2.37455151 C5.66108172,2.37455151 5.60579671,2.35628573 5.55051171,2.30148839 C5.45837004,2.21015948 5.45837004,2.06403324 5.55051171,1.97270433 L6.17707508,1.35166778 C6.26921675,1.26033888 6.41664343,1.26033888 6.5087851,1.35166778 C6.60092677,1.44299669 6.60092677,1.58912293 6.5087851,1.68045184 L5.88222173,2.30148839 C5.82693673,2.35628573 5.77165172,2.37455151 5.71636672,2.37455151 Z" id="Path" fill="#FAC522"></path>
                            </g>
                        </g>
                    </g>
                </g>
            </g>
        </g>
    </g>
</svg>