<?xml version="1.0" encoding="UTF-8"?>
<svg width="24px" height="17px" viewBox="0 0 24 17" version="1.1" xmlns="http://www.w3.org/2000/svg" xmlns:xlink="http://www.w3.org/1999/xlink">
    <title>281EC206-D31E-4AF7-85BB-EA9C49791C36</title>
    <g id="Page-2" stroke="none" stroke-width="1" fill="none" fill-rule="evenodd">
        <g id="Refresh-Score-Bureau-Dahsboard-Copy" transform="translate(-1136.000000, -108.000000)" fill="#D90368" fill-rule="nonzero">
            <g id="email" transform="translate(1136.000000, 108.000000)">
                <path d="M20.2828594,11.0740781 L16.3963125,6.50451563 L19.8484219,4.53501563 C20.1857344,4.34264063 20.3031563,3.91317188 20.1107812,3.57590625 C19.9183594,3.23859375 19.4887969,3.121125 19.151625,3.31354688 C18.8629688,3.47821875 12.3213281,7.21026563 12.0000469,7.39359375 C11.6771719,7.209375 5.13398437,3.4764375 4.84846875,3.31354688 C4.51115625,3.12117188 4.08182812,3.2385 3.8893125,3.57590625 C3.6969375,3.91317188 3.8143125,4.34259375 4.15167187,4.53501563 L7.60378125,6.50451563 L3.7171875,11.0740781 C3.46560937,11.3699062 3.50142187,11.8135781 3.79725,12.0652031 C4.09303125,12.316875 4.5369375,12.280875 4.788375,11.9851406 L8.84667187,7.21364062 L11.651625,8.81390625 C11.8675781,8.93709375 12.1325625,8.93704687 12.3484219,8.81390625 L15.153375,7.21364062 L19.2116719,11.9851406 C19.4632969,12.2810625 19.9072031,12.3166875 20.2027969,12.0652031 C20.498625,11.813625 20.5344375,11.3699062 20.2828594,11.0740781 Z" id="Path"></path>
                <path d="M21.890625,0 L2.109375,0 C0.946265625,0 0,0.946265625 0,2.109375 L0,14.296875 C0,15.4599844 0.946265625,16.40625 2.109375,16.40625 L21.890625,16.40625 C23.0537344,16.40625 24,15.4599844 24,14.296875 L24,2.109375 C24,0.946265625 23.0537344,0 21.890625,0 Z M22.59375,14.296875 C22.59375,14.6845781 22.2783281,15 21.890625,15 L2.109375,15 C1.72167187,15 1.40625,14.6845781 1.40625,14.296875 L1.40625,2.109375 C1.40625,1.72167187 1.72167187,1.40625 2.109375,1.40625 L21.890625,1.40625 C22.2783281,1.40625 22.59375,1.72167187 22.59375,2.109375 L22.59375,14.296875 Z" id="Shape"></path>
            </g>
        </g>
    </g>
</svg>