<?xml version="1.0" encoding="UTF-8"?>
<svg width="22px" height="24px" viewBox="0 0 22 24" version="1.1" xmlns="http://www.w3.org/2000/svg" xmlns:xlink="http://www.w3.org/1999/xlink">
    <title>090F85A0-F795-4F2E-B335-0C706AE8D198</title>
    <g id="Page-2" stroke="none" stroke-width="1" fill="none" fill-rule="evenodd">
        <g id="Refresh-Score-Bureau-Dahsboard-Copy" transform="translate(-877.000000, -248.000000)" fill="#D90368" fill-rule="nonzero">
            <g id="headset" transform="translate(877.000000, 248.000000)">
                <path d="M21.3333333,12.9292929 C21.3333333,10.876583 19.9160058,9.14895238 18.008658,8.67283117 L18.008658,7.36397114 C18.008658,3.30348052 14.7098874,0 10.6551227,0 C6.60035786,0 3.3015873,3.30348052 3.3015873,7.36401732 L3.3015873,8.67851082 C1.4058759,9.16266667 0,10.8848485 0,12.9292929 C0,15.3481328 1.96788456,17.3160173 4.38672439,17.3160173 L5.86435786,17.3160173 C6.24688023,17.3160173 6.55699856,17.005899 6.55699856,16.6233766 L6.55699856,9.23520924 C6.55699856,8.85268687 6.24688023,8.54256854 5.86435786,8.54256854 L4.68686869,8.54256854 L4.68686869,7.36401732 C4.68686869,4.06732468 7.36420202,1.38528139 10.6551227,1.38528139 C13.9460433,1.38528139 16.6233766,4.06732468 16.6233766,7.36401732 L16.6233766,8.54256854 L15.4689755,8.54256854 C15.0864531,8.54256854 14.7763348,8.85268687 14.7763348,9.23520924 L14.7763348,16.6233766 C14.7763348,17.005899 15.0864531,17.3160173 15.4689755,17.3160173 L16.6233766,17.3160173 L16.6233766,18.363798 C16.6233766,19.6574661 15.570886,20.7099567 14.2772179,20.7099567 L13.453899,20.7099567 C13.1574488,19.8639654 12.3514459,19.2554113 11.4054834,19.2554113 L9.92784993,19.2554113 C8.71088023,19.2554113 7.75757576,20.228987 7.75757576,21.4718615 C7.75757576,22.6685599 8.73115152,23.6421356 9.92784993,23.6421356 L11.4054834,23.6421356 C12.3930043,23.6421356 13.206811,23.0010274 13.4786494,22.0952381 L14.2772641,22.0952381 C16.3347763,22.0952381 18.0087042,20.4213564 18.0087042,18.363798 L18.0087042,17.1857085 C19.9160058,16.7096335 21.3333333,14.9820029 21.3333333,12.9292929 L21.3333333,12.9292929 Z M5.17171717,15.9307359 L4.38672439,15.9307359 C2.73172872,15.9307359 1.38528139,14.5842886 1.38528139,12.9292929 C1.38528139,11.2742973 2.73172872,9.92784993 4.38672439,9.92784993 L5.17171717,9.92784993 L5.17171717,15.9307359 Z M11.4054834,22.2568543 L9.92784993,22.2568543 C9.49499567,22.2568543 9.14285714,21.9047157 9.14285714,21.4718615 C9.14285714,20.9261991 9.53775469,20.6406926 9.92784993,20.6406926 L11.4054834,20.6406926 C11.8383377,20.6406926 12.1904762,20.9928312 12.1904762,21.4256854 C12.1904762,21.9713478 11.7955786,22.2568543 11.4054834,22.2568543 Z M16.9466089,15.9307359 L16.1616162,15.9307359 L16.1616162,9.92784993 L16.9466089,9.92784993 C18.6016046,9.92784993 19.9480519,11.2742973 19.9480519,12.9292929 C19.9480519,14.5842886 18.6016046,15.9307359 16.9466089,15.9307359 Z" id="Shape"></path>
            </g>
        </g>
    </g>
</svg>