<?xml version="1.0" encoding="UTF-8"?>
<svg width="21px" height="24px" viewBox="0 0 21 24" version="1.1" xmlns="http://www.w3.org/2000/svg" xmlns:xlink="http://www.w3.org/1999/xlink">
    <title>C6D9F269-60D3-4A1A-9536-945C89014258</title>
    <g id="Page-2" stroke="none" stroke-width="1" fill="none" fill-rule="evenodd">
        <g id="Refresh-Score-Bureau-Dahsboard-Copy" transform="translate(-874.000000, -109.000000)" fill="#D90368" fill-rule="nonzero">
            <g id="question-(4)" transform="translate(874.000000, 109.000000)">
                <path d="M4.41691948,17.9190701 L4.28011948,18.8081766 C4.14331948,18.3978234 4.00656623,17.9190701 3.93816623,17.5087169 C4.14336623,17.6454701 4.28016623,17.7822701 4.41691948,17.9190701 Z" id="Path"></path>
                <path d="M3.39105974,23.1853558 C3.18585974,23.0485558 3.04910649,22.7750026 3.04910649,22.5014026 L3.73305974,18.1242234 C1.40769351,16.1408104 0.0398337662,13.3366909 0.0398337662,10.2589714 C0.0398337662,4.58233247 4.62211948,0 10.2987584,0 C15.9753974,0 20.5577766,4.58233247 20.5577766,10.2590182 C20.5577766,15.9357039 15.9754442,20.5180364 10.2987584,20.5180364 C9.61480519,20.5180364 8.9308987,20.4496364 8.31534545,20.3128364 L4.14336623,23.1169558 C3.86981299,23.3221091 3.59621299,23.3905091 3.39105974,23.1853558 Z M10.2987584,1.43625974 C5.37442597,1.43625974 1.40764675,5.40308571 1.40764675,10.3273714 C1.40764675,13.0630909 2.63870649,15.6620571 4.82731948,17.3718701 C5.03251948,17.5086701 5.10087273,17.7822234 5.10087273,17.9874234 L4.62211948,21.2018961 L7.76819221,19.0816831 C7.90499221,18.9448831 8.11014545,18.9448831 8.31534545,19.0132831 C8.9992987,19.1500831 9.61480519,19.2184831 10.2987584,19.2184831 C15.2230909,19.2184831 19.1898701,15.2516571 19.1898701,10.3273714 C19.1898701,5.40308571 15.2230909,1.43625974 10.2987584,1.43625974 Z" id="Shape"></path>
                <path d="M10.2987584,14.0206442 C9.88840519,14.0206442 9.61480519,13.7470909 9.61480519,13.3366909 L9.61480519,11.0797247 C9.61480519,10.6693714 9.88835844,10.3957714 10.2987584,10.3957714 C11.2562649,10.3957714 12.0085714,9.64346494 12.0085714,8.68595844 C12.0085714,7.72845195 11.2562649,6.97614545 10.2987584,6.97614545 C9.34125195,6.97614545 8.58894545,7.72845195 8.58894545,8.68595844 C8.58894545,9.09631169 8.31539221,9.36991169 7.90499221,9.36991169 C7.49463896,9.36991169 7.22103896,9.09635844 7.22103896,8.68595844 C7.22103896,6.97614545 8.5888987,5.60823896 10.2987584,5.60823896 C12.0086182,5.60823896 13.3764779,6.9760987 13.3764779,8.68595844 C13.3764779,10.1222182 12.3505714,11.3532779 10.9827117,11.6952779 L10.9827117,13.3367377 C10.9827117,13.6786442 10.7091117,14.0206442 10.2987584,14.0206442 Z" id="Path"></path>
                <path d="M9.82000519,15.7988571 C9.54645195,15.5253039 9.54645195,15.0465506 9.82000519,14.8413506 C10.0935584,14.5677974 10.5039584,14.5677974 10.7775117,14.8413506 C11.0510649,15.1149039 11.0510649,15.5253039 10.7775117,15.7988571 C10.5039584,16.1408104 10.0936052,16.0724104 9.82000519,15.7988571 Z" id="Path"></path>
            </g>
        </g>
    </g>
</svg>