<?xml version="1.0" encoding="UTF-8"?>
<svg width="24px" height="24px" viewBox="0 0 24 24" version="1.1" xmlns="http://www.w3.org/2000/svg" xmlns:xlink="http://www.w3.org/1999/xlink">
    <title>5E312701-8032-4796-AA82-0BAA8260E153</title>
    <g id="Page-2" stroke="none" stroke-width="1" fill="none" fill-rule="evenodd">
        <g id="Refresh-Score-Bureau-Dahsboard-Copy" transform="translate(-1138.000000, -248.000000)" fill="#D90368" fill-rule="nonzero">
            <g id="Combined-Shape" transform="translate(1138.000000, 248.000000)">
                <path d="M12.5032969,0 C15.5741719,0 18.46125,1.19582813 20.6326875,3.3673125 C22.804125,5.53875 24,8.42578125 24,11.4967031 C24,14.567625 22.804125,17.4547031 20.6326406,19.6261406 C18.46125,21.7975781 15.574125,22.9934531 12.50325,22.9934531 C10.5579844,22.9934531 8.64642187,22.5009844 6.95310938,21.5663906 L6.95310938,21.5663906 L0,24 L2.43365625,17.0467969 C1.49896875,15.3535313 1.00654687,13.4419688 1.00654687,11.4967031 C1.00654687,8.42582813 2.20232813,5.53879688 4.3738125,3.3673125 C6.54529688,1.19582813 9.43242188,0 12.5032969,0 Z M12.5032969,1.40779688 C6.94026563,1.40779688 2.41434375,5.93367187 2.41434375,11.49675 C2.41434375,13.3012969 2.89696875,15.0724219 3.81004687,16.6185937 L3.81004687,16.6185937 L3.97640625,16.9002656 L2.294625,21.7053281 L7.09973438,20.0235937 L7.38140625,20.1899531 C8.92757813,21.1030781 10.69875,21.5857031 12.5032969,21.5857031 C18.0663281,21.5857031 22.59225,17.0598281 22.59225,11.49675 C22.59225,5.93371875 18.0663281,1.40779688 12.5032969,1.40779688 Z M8.73004687,4.90317187 C9.10607812,4.90317187 9.45960937,5.04960937 9.72548437,5.31548437 L9.72548437,5.31548437 L11.3845312,6.97453125 C11.6504062,7.24040625 11.7968437,7.5939375 11.7968437,7.96996875 C11.7968437,8.346 11.6504531,8.69953125 11.3845312,8.96540625 L11.3845312,8.96540625 L10.7499375,9.60004687 C11.5859531,11.1411562 12.8587969,12.414 14.3999062,13.2499687 L14.3999062,13.2499687 L15.0345,12.615375 C15.5834531,12.0664687 16.4765625,12.0664687 17.0254219,12.615375 L17.0254219,12.615375 L18.6844219,14.2744219 C18.9502969,14.5402969 19.0966875,14.8937812 19.0966875,15.2698125 C19.0966875,15.6458437 18.9502969,15.999375 18.684375,16.26525 L18.684375,16.26525 L17.3571562,17.5924687 C16.9651406,17.9845312 16.4239219,18.1810781 15.7680469,18.1810781 C15.1708125,18.1810781 14.4785625,18.0181875 13.7166562,17.6917031 C12.3202031,17.0932031 10.7849531,15.9974062 9.39370312,14.6061562 C8.00245312,13.2149062 6.90665625,11.6796562 6.30815625,10.2832031 C5.62307812,8.68471875 5.65832812,7.39176562 6.40739062,6.64270312 L6.40739062,6.64270312 L7.73460937,5.31548437 C8.00048437,5.04960937 8.35396875,4.90317187 8.73004687,4.90317187 Z M8.73004687,6.310875 L7.40278125,7.63809375 C7.10657812,7.93439062 7.18476562,8.75498437 7.60209375,9.72867187 C8.13173437,10.9644375 9.1215,12.343125 10.3891406,13.6107656 C11.6567812,14.8784062 13.0355156,15.8682187 14.2712344,16.3978125 C15.2449219,16.8151406 16.0655156,16.893375 16.3618125,16.597125 L16.3618125,16.597125 L17.6889375,15.2697656 L16.0298906,13.6107187 L14.6836875,14.9569219 L14.2354219,14.7445781 C12.0561562,13.71225 10.2875156,11.9436094 9.25523437,9.76439062 L9.25523437,9.76439062 L9.04289062,9.316125 L10.3890937,7.96992187 L8.73004687,6.310875 Z"></path>
            </g>
        </g>
    </g>
</svg>