<?xml version="1.0" encoding="utf-8"?>
<!-- Generator: Adobe Illustrator 26.0.1, SVG Export Plug-In . SVG Version: 6.00 Build 0)  -->
<svg version="1.1" id="Layer_1" xmlns="http://www.w3.org/2000/svg" xmlns:xlink="http://www.w3.org/1999/xlink" x="0px" y="0px"
	 viewBox="0 0 180 90" style="enable-background:new 0 0 180 90;" xml:space="preserve">
<style type="text/css">
	.st0{fill:url(#SVGID_1_);}
	.st1{fill:#FFFFFF;}
</style>
<g>
	<g>
		<g>
			<g>
				
					<radialGradient id="SVGID_1_" cx="133.282" cy="47.0834" r="22.1162" gradientTransform="matrix(1 0 0 -1 0 92)" gradientUnits="userSpaceOnUse">
					<stop  offset="7.367060e-02" style="stop-color:#3600FF"/>
					<stop  offset="0.1226" style="stop-color:#2E18FF"/>
					<stop  offset="0.2534" style="stop-color:#1B55FF"/>
					<stop  offset="0.3647" style="stop-color:#0C81FF"/>
					<stop  offset="0.4508" style="stop-color:#039CFF"/>
					<stop  offset="0.5014" style="stop-color:#00A6FF"/>
					<stop  offset="1" style="stop-color:#00D300"/>
				</radialGradient>
				<path class="st0" d="M139.1,44.8h-6.3L144.3,30h6.3L139.1,44.8z"/>
			</g>
		</g>
	</g>
	<g>
		<g>
			<g>
				<path class="st1" d="M38.6,35.3h-9.3V30h24v5.3h-9V60h-5.7V35.3z"/>
				<path class="st1" d="M53.3,37.6h5.5v3.3c0.7-1.3,1.8-2.2,3.2-2.9s3.1-0.8,5.2-0.5v5.9c-1.4-0.5-2.7-0.6-4-0.3
					C61.9,43.4,60.8,44,60,45s-1.2,2.2-1.2,3.6V60h-5.5V37.6z"/>
				<path class="st1" d="M79.8,60.4c-2.1,0-4.1-0.5-5.8-1.6c-1.8-1-3.2-2.5-4.2-4.2c-1-1.8-1.5-3.7-1.5-5.8s0.5-4.1,1.6-5.8
					c1-1.8,2.5-3.2,4.2-4.2c1.8-1,3.7-1.5,5.8-1.5c1.8,0,3.5,0.4,5.1,1.2s2.9,1.9,4,3.4c1.1,1.4,1.8,3,2.1,4.8
					c0.3,1.5,0.3,2.9,0,4.2H73.7c0.2,1,0.6,1.8,1.2,2.5s1.3,1.2,2.2,1.6c0.9,0.4,1.8,0.5,2.8,0.5c1.1,0,2.1-0.2,3.2-0.6
					c1-0.4,1.9-1,2.6-1.7l4.8,1.3c-0.9,1.8-2.4,3.2-4.4,4.3C84,59.8,81.9,60.4,79.8,60.4z M85.7,46.6c-0.2-0.8-0.6-1.6-1.1-2.3
					c-0.6-0.7-1.2-1.3-2.1-1.7c-0.8-0.4-1.8-0.6-2.8-0.6s-2,0.2-2.8,0.6c-0.8,0.4-1.5,1-2.1,1.7s-0.9,1.5-1.1,2.3H85.7z"/>
				<path class="st1" d="M93.8,30h5.5v30h-5.5V30z"/>
				<path class="st1" d="M103.4,30h5.5v30h-5.5V30z"/>
				<path class="st1" d="M112.6,37.6h5.5V60h-5.5V37.6z"/>
			</g>
		</g>
		<polygon class="st1" points="144.8,60 127.2,37.6 120.9,37.6 129.7,48.8 120.9,60 127.2,60 132.8,52.9 138.4,60 		"/>
	</g>
</g>
</svg>
