<?xml version="1.0" encoding="utf-8"?>
<!-- Generator: Adobe Illustrator 26.0.3, SVG Export Plug-In . SVG Version: 6.00 Build 0)  -->
<svg version="1.0" id="Layer_1" xmlns="http://www.w3.org/2000/svg" xmlns:xlink="http://www.w3.org/1999/xlink" x="0px" y="0px"
	 viewBox="0 0 870 652" style="enable-background:new 0 0 870 652;" xml:space="preserve">
<style type="text/css">
	.st0{fill-rule:evenodd;clip-rule:evenodd;fill:#0069B4;}
	.st1{fill:#0069B4;}
	.st2{fill:none;}
</style>
<path class="st0" d="M741.6,299.5c5.2,0,9.3-2.5,9.3-7.6v-47.4h22.5V294c0,15-9.9,20-22.9,20H713c-1.4,0-2.9-0.3-4.1-1
	c-1.3-0.7-2.4-1.6-3.2-2.8l-6.5-10.7L741.6,299.5z M557.3,299.5c5.2,0,9.3-2.5,9.3-7.6v-47.4H589V294c0,15-9.9,20-22.9,20h-37.5
	c-2.9,0-5.6-1.5-7.3-3.9l-6.5-10.7L557.3,299.5z M643.7,261.3l-30.4,52.8h-26.6l42.5-69.6h29l42.4,69.6h-26.4l-7.2-12.4h-39.3
	l6.5-10.7c0.8-1.2,1.9-2.2,3.2-2.8c1.3-0.7,2.7-1,4.1-1h17L643.7,261.3L643.7,261.3z M459.3,261.3l-30.5,52.8h-26.5l42.5-69.6h29
	l42.4,69.6h-26.5l-7.1-12.4h-39.3l6.5-10.7c0.8-1.2,1.9-2.2,3.2-2.8c1.3-0.7,2.7-1,4.1-1h17L459.3,261.3z M332.8,284.8v29.3
	l6.4-10.7c0.8-1.2,1.9-2.2,3.2-2.8c1.3-0.7,2.7-1,4.1-1h24.8c4.7,0.1,8.4-3.3,8.4-7.3s-3.6-7.4-8.4-7.4L332.8,284.8z M332.8,284.8
	l6.4-10.7c1.7-2.4,4.4-3.9,7.3-3.9h25.1c4.5,0,8.1-2,8.1-5.5s-3.6-5.6-8.1-5.6h-38.9V284.8z M310.3,314.1v-69.6h61.4
	c12.7,0,33,1.7,33,18.3c0,8.1-7.1,13.9-15.4,15.9c10.3,3.1,15.4,8.8,15.4,16.6c0,17-19.3,18.7-33,18.7L310.3,314.1L310.3,314.1z"/>
<polygon class="st1" points="310.1,337.2 365.7,337.2 365.7,354.2 329.4,354.2 329.4,370.8 362.3,370.8 362.3,386.8 329.4,386.8 
	329.4,406.9 310.1,406.9 "/>
<rect x="378.9" y="337.2" class="st1" width="19.4" height="69.6"/>
<polygon class="st1" points="414.9,337.2 432.9,337.2 461.5,374.1 461.5,337.2 480.5,337.2 480.5,406.9 463.7,406.9 434,368.7 
	434,406.9 414.9,406.9 "/>
<path class="st1" d="M491.6,396.5l10.7-12.8c6.3,5.3,14.3,8.3,22.5,8.4c5.2,0,8-1.8,8-4.8v-0.2c0-2.9-2.3-4.5-11.7-6.7
	c-14.8-3.4-26.2-7.6-26.2-21.9v-0.2c0-12.9,10.2-22.3,26.9-22.3c11.8,0,21,3.2,28.6,9.3l-9.7,13.7c-6.4-4.5-13.3-6.9-19.5-6.9
	c-4.7,0-7,2-7,4.5v0.2c0,3.2,2.4,4.6,12,6.8c16,3.5,25.9,8.7,25.9,21.7v0.2c0,14.2-11.2,22.7-28.1,22.7
	C511.8,408.1,500.1,404.3,491.6,396.5L491.6,396.5z"/>
<polygon class="st1" points="565.6,337.2 621.5,337.2 621.5,353.7 584.6,353.7 584.6,364.2 618,364.2 618,379.4 584.6,379.4 
	584.6,390.5 622,390.5 622,406.9 565.6,406.9 "/>
<path class="st1" d="M667.7,370.7c6.6,0,10.3-3.2,10.3-8.3v-0.2c0-5.5-4-8.3-10.4-8.3H655v16.7H667.7z M635.8,337.2h32.9
	c10.6,0,18,2.8,22.6,7.6c4.1,4,6.2,9.4,6.2,16.2v0.2c0,10.6-5.7,17.7-14.3,21.4l16.6,24.3h-22.3l-14-21.1h-8.4v21.1h-19.3V337.2z"/>
<polygon class="st1" points="703.6,337.2 725.2,337.2 741,381.3 756.7,337.2 777.8,337.2 749.6,407.4 731.8,407.4 "/>
<path class="st1" d="M182.9,235.1c-3,0-5.9,0.1-8.9,0.4s-5.9,0.7-8.8,1.3c-2.9,0.6-5.8,1.3-8.6,2.2c-2.8,0.9-5.6,1.9-8.4,3
	c-2.7,1.1-5.4,2.4-8,3.8c-5.2,2.8-10.2,6.1-14.8,9.9c-2.3,1.9-4.5,3.9-6.6,6c-2.1,2.1-4.1,4.3-6,6.6c-1.9,2.3-3.7,4.7-5.3,7.2
	c-1.7,2.5-3.2,5-4.6,7.6c-4.2,7.9-7.2,16.3-9,25.1c-0.6,2.9-1,5.9-1.3,8.8c-0.3,3-0.4,5.9-0.4,8.9s0.2,5.9,0.4,8.9s0.7,5.9,1.3,8.8
	c1.8,8.8,4.8,17.2,9,25.1c1.4,2.6,2.9,5.2,4.6,7.6s3.4,4.9,5.3,7.2c1.9,2.3,3.9,4.5,6,6.6c2.1,2.1,4.3,4.1,6.6,6
	c4.6,3.8,9.5,7.1,14.8,9.9c2.6,1.4,5.3,2.7,8,3.8c2.7,1.1,5.5,2.1,8.4,3s5.7,1.6,8.6,2.2s5.8,1,8.8,1.3s5.9,0.4,8.9,0.4
	s5.9-0.1,8.9-0.4s5.9-0.7,8.8-1.3s5.8-1.3,8.6-2.2s5.6-1.9,8.4-3s5.4-2.4,8-3.8c2.6-1.4,5.2-2.9,7.6-4.6c2.5-1.7,4.8-3.4,7.1-5.3
	c2.3-1.9,4.5-3.9,6.6-6c4.2-4.2,8-8.8,11.3-13.8c1.6-2.5,3.2-5,4.6-7.6s2.7-5.3,3.8-8.1c1.1-2.7,2.1-5.5,3-8.4
	c0.9-2.9,1.6-5.7,2.2-8.6s1-5.9,1.3-8.8c0.3-3,0.4-5.9,0.4-8.9s-0.1-5.9-0.4-8.9s-0.7-5.9-1.3-8.8s-1.3-5.8-2.2-8.6s-1.9-5.6-3-8.4
	s-2.4-5.4-3.8-8.1c-1.4-2.6-2.9-5.2-4.6-7.6s-3.4-4.9-5.3-7.2c-3.8-4.6-8-8.8-12.6-12.6c-2.3-1.9-4.7-3.7-7.1-5.3s-5-3.2-7.6-4.6
	c-2.6-1.4-5.3-2.7-8-3.8c-2.7-1.1-5.5-2.1-8.4-3c-2.8-0.9-5.7-1.6-8.6-2.2s-5.8-1-8.8-1.3S185.9,235.1,182.9,235.1L182.9,235.1z
	 M239.5,349.3c0,24.8-27.6,27.1-47.2,27.2h-17.6v-22.3h35v-17h-35v-23.1h38.7v-18h-59.2v80.5h-22.6V275.4h60.7
	c18.1,0,47.2,2.6,47.2,26.5c0,11.8-10.1,20.5-21.9,23.5C232.2,330,239.5,337.2,239.5,349.3L239.5,349.3z"/>
<rect x="91.5" y="234.5" class="st2" width="687" height="183"/>
</svg>
