<?xml version="1.0" standalone="no"?>
<!DOCTYPE svg PUBLIC "-//W3C//DTD SVG 20010904//EN"
 "http://www.w3.org/TR/2001/REC-SVG-20010904/DTD/svg10.dtd">
<svg version="1.0" xmlns="http://www.w3.org/2000/svg"
 width="639.000000pt" height="130.000000pt" viewBox="0 0 639.000000 130.000000"
 preserveAspectRatio="xMidYMid meet">

<g transform="translate(0.000000,130.000000) scale(0.100000,-0.100000)"
fill="#000000" stroke="none">
<path d="M1440 683 c-134 -247 -245 -451 -247 -455 -2 -5 40 -8 94 -8 l98 1
40 72 40 72 222 3 222 2 42 -75 41 -75 98 0 98 0 -244 447 c-135 246 -248 451
-253 456 -4 4 -117 -194 -251 -440z m340 -14 c45 -83 80 -153 77 -155 -2 -2
-81 -3 -175 -2 l-170 3 85 158 c47 86 88 155 93 152 4 -3 45 -73 90 -156z"/>
<path d="M362 1079 c-107 -21 -231 -109 -286 -203 -58 -99 -72 -242 -37 -357
95 -305 490 -399 718 -171 29 29 53 57 53 62 0 5 -29 32 -65 59 l-66 49 -40
-43 c-95 -103 -250 -111 -357 -19 -146 125 -116 345 59 435 97 49 207 30 291
-51 l51 -49 64 50 c34 28 63 54 63 59 0 20 -107 112 -162 139 -96 47 -187 60
-286 40z"/>
<path d="M2787 1076 c-102 -28 -167 -112 -174 -225 -4 -58 -1 -73 24 -121 34
-67 80 -99 188 -134 98 -32 142 -58 156 -93 22 -59 -37 -123 -115 -123 -50 0
-121 31 -162 71 l-31 30 -51 -60 c-29 -33 -52 -64 -52 -69 0 -17 74 -70 135
-98 74 -34 189 -43 265 -21 121 35 193 127 193 246 0 145 -65 214 -252 270
-108 33 -152 84 -121 142 31 58 128 62 213 9 l51 -32 28 34 c64 74 64 76 33
108 -62 65 -220 97 -328 66z"/>
<path d="M3620 655 l0 -435 85 0 85 0 0 130 0 130 205 0 205 0 0 -130 0 -130
85 0 85 0 0 435 0 435 -85 0 -85 0 0 -220 0 -220 -205 0 -205 0 0 220 0 220
-85 0 -85 0 0 -435z"/>
</g>
</svg>
